<?xml version="1.0" encoding="UTF-8"?>
<svg version="1.1" xmlns="http://www.w3.org/2000/svg" width="5753" height="2620">
<path d="M0 0 C1.04434456 -0.00422218 1.04434456 -0.00422218 2.10978699 -0.00852966 C4.36305236 -0.0092968 6.61423764 0.02211671 8.8671875 0.05859375 C10.02050064 0.06931915 10.02050064 0.06931915 11.19711304 0.08026123 C22.9229396 0.19440279 34.30506024 0.71796647 45.7421875 3.49609375 C46.5583252 3.68945312 47.37446289 3.8828125 48.21533203 4.08203125 C80.36123041 11.92633257 108.00621134 27.63276377 131.7421875 50.49609375 C132.495 51.18574219 133.2478125 51.87539063 134.0234375 52.5859375 C144.21968378 62.2095685 152.48869024 73.87747125 159.5546875 85.93359375 C159.96187012 86.62243652 160.36905273 87.3112793 160.78857422 88.02099609 C168.90066891 102.33779076 174.54791832 117.90015315 180.12069702 133.32894897 C181.68121843 137.64897196 183.25620829 141.96368297 184.83000183 146.27888489 C185.63850692 148.49622482 186.44629737 150.71382547 187.25337219 152.9316864 C190.9306013 163.03376645 194.67084333 173.11165443 198.4296875 183.18359375 C199.74909682 186.72250762 201.06793869 190.26163284 202.38671875 193.80078125 C202.72828003 194.71723419 203.06984131 195.63368713 203.42175293 196.57791138 C207.92448006 208.66315358 212.40632995 220.75614883 216.89029312 232.84836197 C219.10888913 238.83129778 221.32782444 244.81410776 223.546875 250.796875 C223.79770403 251.47313871 224.04853306 252.14940243 224.30696297 252.84615898 C228.26444023 263.51563066 232.22496377 274.18396868 236.1875 284.8515625 C236.45692099 285.57687542 236.72634197 286.30218834 237.00392723 287.04948044 C239.46041186 293.6625055 241.91711762 300.27544841 244.37405396 306.88830566 C250.09149199 322.2768536 255.80698254 337.6661131 261.51221085 353.05919266 C262.31705842 355.23068133 263.12200008 357.40213509 263.92697144 359.57357788 C264.45196769 360.98980625 264.97696161 362.40603549 265.50195312 363.82226562 C265.75811464 364.51329187 266.01427616 365.20431812 266.27820015 365.91628456 C267.76650441 369.93142689 269.2540761 373.94683965 270.74107838 377.96246433 C271.87235573 381.01686629 273.0046335 384.07089741 274.13671875 387.125 C274.53139847 388.19166397 274.92607819 389.25832794 275.3327179 390.35731506 C277.74279806 396.85605449 280.20772857 403.33151267 282.71269226 409.79429626 C283.43102506 411.679482 284.10422768 413.5822143 284.7421875 415.49609375 C289.74565107 417.93680769 293.4617408 417.68845268 298.7421875 416.49609375 C302.53425885 413.49660915 303.86103302 410.30071073 305.5 405.81640625 C305.88374283 404.78172211 305.88374283 404.78172211 306.27523804 403.72613525 C307.14950739 401.36144297 308.0079616 398.99128991 308.8671875 396.62109375 C309.50862605 394.8779982 310.15125089 393.13533883 310.79492188 391.39306641 C312.26966945 387.39733475 313.73838244 383.39944252 315.20410156 379.40039062 C318.01494558 371.74173812 320.85789929 364.09514606 323.703125 356.44921875 C324.23440941 355.0212334 324.76568476 353.59324469 325.29695129 352.16525269 C326.11201756 349.97444808 326.92708707 347.78364469 327.74221516 345.59286308 C330.84703829 337.24719947 333.94522968 328.89907637 337.04296875 320.55078125 C337.32495306 319.79088017 337.60693737 319.03097908 337.89746666 318.24805069 C339.57712859 313.72161853 341.25664747 309.19513331 342.93610382 304.66862488 C343.97319674 301.87348499 345.01037382 299.07837633 346.04755688 296.28326988 C352.94762686 277.68823426 359.84524509 259.09228958 366.7421875 240.49609375 C368.14939663 236.70184188 369.5566129 232.90759266 370.96386719 229.11335754 C371.90663672 226.57145926 372.84933643 224.02953509 373.79199219 221.4875946 C376.1511206 215.12632625 378.51144566 208.76550568 380.87402344 202.40551758 C381.82759519 199.83809839 382.78103038 197.27062853 383.734375 194.703125 C384.09165176 193.74098556 384.09165176 193.74098556 384.45614624 192.75940895 C387.6605318 184.12819501 390.85136107 175.49207947 394.03060246 166.85157204 C396.38077077 160.46431647 398.73568768 154.0788245 401.09354305 147.69440269 C402.51426652 143.84642584 403.93224171 139.99748682 405.34341431 136.14599609 C419.73174271 96.887536 419.73174271 96.887536 428.6171875 83.24609375 C429.03299072 82.59608398 429.44879395 81.94607422 429.87719727 81.27636719 C437.13876329 70.09800611 445.57009485 60.13964911 454.7421875 50.49609375 C455.32226562 49.86316406 455.90234375 49.23023438 456.5 48.578125 C476.71819406 27.19154285 506.2466429 12.70297174 534.3046875 5.24609375 C535.22580322 4.99972168 536.14691895 4.75334961 537.09594727 4.49951172 C549.74662764 1.27869101 562.2085305 0.13415353 575.2421875 0.12109375 C576.55960938 0.09660156 577.87703125 0.07210937 579.234375 0.046875 C580.50539063 0.04300781 581.77640625 0.03914062 583.0859375 0.03515625 C584.22224609 0.02693848 585.35855469 0.0187207 586.52929688 0.01025391 C591.29585002 0.73103208 594.41241929 3.03334871 597.6171875 6.55859375 C600.78650719 14.8340396 598.40912463 22.9110982 595.08789062 30.71484375 C594.70013458 31.66936432 594.31237854 32.62388489 593.91287231 33.60733032 C592.63391318 36.74442191 591.32866335 39.86985074 590.0234375 42.99609375 C589.10947861 45.22559253 588.19752889 47.45591588 587.28747559 49.68701172 C585.39254401 54.32711661 583.4883462 58.96325189 581.57714844 63.59667969 C577.6205128 73.2042104 573.76235723 82.85096686 569.90032959 92.49681091 C567.77999706 97.78841597 565.65138412 103.07668772 563.5234375 108.36523438 C562.65361172 110.52773693 561.78382035 112.69025333 560.9140625 114.8527832 C560.47682861 115.93987579 560.03959473 117.02696838 559.58911133 118.14700317 C545.64770022 152.81195421 531.73245194 187.48718117 517.86664963 222.18244553 C506.73259236 250.04227261 495.57342158 277.89148083 484.34727955 305.71433067 C482.99441797 309.06731685 481.64168433 312.42035461 480.2890625 315.7734375 C480.01102468 316.46266674 479.73298687 317.15189598 479.44652367 317.86201096 C470.23131039 340.70815379 461.05004961 363.56797391 451.86439896 386.42601395 C450.45283143 389.9385033 449.04112121 393.45093526 447.62936401 396.96334839 C435.17561431 427.94516772 435.17561431 427.94516772 422.7578125 458.94140625 C422.48932621 459.6127573 422.22083992 460.28410835 421.94421768 460.97580338 C419.10654788 468.07231016 416.27133945 475.16979798 413.43838501 482.26818848 C408.60523825 494.37816178 403.76744587 506.48625101 398.91952991 518.59032059 C396.61500061 524.34487306 394.31350661 530.10060464 392.01831055 535.85888672 C389.75254387 541.54298116 387.47919053 547.22398736 385.20065117 552.90297318 C384.34685439 555.03469623 383.4956991 557.16747949 382.64741707 559.30140305 C370.74517338 589.22951409 370.74517338 589.22951409 359.7421875 601.49609375 C358.93007812 602.40230469 358.11796875 603.30851562 357.28125 604.2421875 C342.03149233 620.36399876 320.94129784 630.85405904 298.68359375 631.80859375 C271.52915457 632.52339384 248.30751128 625.72374969 228.03955078 606.83398438 C220.9198012 599.93254561 215.4207014 592.28465947 211.01635742 583.42089844 C210.67452266 582.7335046 210.33268789 582.04611076 209.9804945 581.33788681 C205.53576663 572.22600573 201.849603 562.80171823 198.10546875 553.38671875 C197.28242377 551.33211258 196.45870062 549.27777797 195.63435364 547.22369385 C193.89220683 542.88004362 192.15374008 538.53494683 190.41802979 534.1887207 C187.75599127 527.52580513 185.07977722 520.86864916 182.39990234 514.21289062 C178.75374993 505.15618529 175.11010265 496.09848382 171.47070312 487.0390625 C171.01495848 485.90459938 170.55921383 484.77013626 170.08965874 483.60129547 C169.16657531 481.30347538 168.24350061 479.00565178 167.32043457 476.70782471 C165.45580445 472.06654381 163.5905972 467.42549495 161.7253952 462.78444386 C153.45043255 442.19399442 145.1779954 421.60259711 136.94369698 400.9958477 C131.4901226 387.34967699 126.01215366 373.71333897 120.53125 360.078125 C120.07952486 358.9543256 119.62779972 357.8305262 119.16238594 356.67267227 C115.42807602 347.3828162 111.69307332 338.0932387 107.95794678 328.80371094 C104.71116074 320.72867122 101.46468376 312.65350736 98.21875 304.578125 C97.76391865 303.44658304 97.3090873 302.31504108 96.84047318 301.14920998 C90.8101763 286.14550873 84.79354895 271.13643403 78.79297638 256.12082291 C72.96761513 241.54502828 67.11982296 226.97829732 61.265625 212.4140625 C60.81177052 211.28494257 60.35791603 210.15582264 59.89030838 208.99248695 C56.63306611 200.88933571 53.37517601 192.78644498 50.1171875 184.68359375 C28.13582525 130.01358279 28.13582525 130.01358279 17.28519917 102.85803127 C14.14565538 95.0015872 11.00012376 87.14754134 7.85504913 79.29331017 C5.87337608 74.34407641 3.89241024 69.39455956 1.91141129 64.44505596 C0.2300372 60.24428124 -1.45167927 56.04364413 -3.1340332 51.84326172 C-4.80430968 47.67298342 -6.47375472 43.50237319 -8.14261436 39.33152771 C-8.76947578 37.76529372 -9.39663927 36.19918058 -10.02411842 34.63319397 C-10.88772501 32.47778561 -11.75026663 30.32195408 -12.61254883 28.16601562 C-13.10104813 26.94587769 -13.58954742 25.72573975 -14.09284973 24.46862793 C-15.95585181 19.71496756 -16.95620422 15.60793315 -16.2578125 10.49609375 C-12.45022641 3.16296499 -8.2730437 -0.01200202 0 0 Z " fill="#FFFFFF" transform="translate(764.2578125,871.50390625)"/>
<path d="M0 0 C2.12989496 1.96549538 4.2161601 3.97109707 6.28442383 6.0012207 C7.72700073 7.41379352 9.19225529 8.80308899 10.65795898 10.19165039 C43.65855203 42.03837655 58.80118675 86.40592223 60.95092773 131.37133789 C61.75065511 177.15573022 45.87361628 222.53071178 14.23608398 255.93383789 C12.55865414 257.64041738 10.87211559 259.33808225 9.17749023 261.02758789 C7.73614071 262.47360197 6.31508065 263.94101259 4.93920898 265.44946289 C-5.91146193 277.09630463 -20.14113402 286.21341828 -34.23657227 293.44946289 C-34.94362305 293.81523438 -35.65067383 294.18100586 -36.37915039 294.55786133 C-74.08173894 313.82915016 -120.63422182 320.49840095 -162.23657227 311.44946289 C-163.61063232 311.15144775 -163.61063232 311.15144775 -165.01245117 310.84741211 C-197.71344581 303.49670865 -227.00652212 288.76660691 -251.23657227 265.44946289 C-251.73753418 264.97428223 -252.23849609 264.49910156 -252.75463867 264.00952148 C-282.84197524 235.36738872 -304.09449859 193.47394131 -305.41357422 151.43383789 C-305.43967903 150.02247316 -305.45986651 148.61098946 -305.47485352 147.19946289 C-305.48464737 146.43213837 -305.49444122 145.66481384 -305.50453186 144.87423706 C-305.81733302 113.98614426 -301.92246224 85.47393338 -288.23657227 57.44946289 C-287.89754883 56.75224121 -287.55852539 56.05501953 -287.20922852 55.33666992 C-266.23638579 12.76679272 -228.78936648 -18.95271278 -183.98657227 -34.23803711 C-174.20755624 -37.45381872 -164.37984113 -39.82359211 -154.23657227 -41.55053711 C-152.30104492 -41.88891602 -152.30104492 -41.88891602 -150.32641602 -42.23413086 C-97.77670599 -49.86146615 -39.96402158 -35.84116197 0 0 Z " fill="#FFC20E" transform="translate(4718.236572265625,1188.550537109375)"/>
<path d="M0 0 C7.31896481 5.92129802 11.42407068 14.10329859 12.6875 23.3125 C12.77779966 25.7509869 12.81654742 28.19163782 12.81892776 30.63179493 C12.8209804 31.3502037 12.82303303 32.06861246 12.82514787 32.80879119 C12.8308033 35.21660506 12.82936243 37.62436146 12.82794189 40.03218079 C12.83052635 41.77573611 12.83353974 43.51929083 12.8369453 45.26284474 C12.84500883 50.05478182 12.8468045 54.84670391 12.84754276 59.63864696 C12.8493944 64.80645516 12.85694222 69.97425561 12.86367798 75.14205933 C12.87725642 86.44153367 12.88328503 97.74100447 12.88768864 109.04048562 C12.89045143 116.09509306 12.89468881 123.14969913 12.89919281 130.20430565 C12.91138398 149.73488053 12.92168415 169.26545431 12.9250679 188.79603291 C12.92528747 190.04585768 12.92550703 191.29568246 12.92573325 192.58338071 C12.92595153 193.83619598 12.92616981 195.08901124 12.9263947 196.3797906 C12.92683817 198.91847694 12.92728473 201.45716327 12.92773438 203.99584961 C12.9279558 205.25512585 12.92817723 206.5144021 12.92840537 207.81183823 C12.93235467 228.22345046 12.94981339 248.63502702 12.9730939 269.04662547 C12.99680036 290.00068025 13.0092694 310.95471712 13.01043582 331.90878552 C13.01135288 343.67469201 13.01711331 355.440552 13.03525543 367.20644569 C13.05064675 377.22361039 13.05578252 387.2407142 13.04751733 397.25788847 C13.04360764 402.36883853 13.0445561 407.47966596 13.05857468 412.59060097 C13.07129402 417.27062385 13.07013334 421.9504317 13.05798396 426.6304542 C13.05602359 428.32221588 13.05912112 430.01399269 13.06782833 431.7057331 C13.16676387 452.22980113 13.16676387 452.22980113 6.5 459.625 C5.97019531 460.23988281 5.44039062 460.85476563 4.89453125 461.48828125 C-1.40768038 466.69736591 -7.33571331 467.92367554 -15.3671875 467.87890625 C-16.77957199 467.88820412 -16.77957199 467.88820412 -18.2204895 467.89768982 C-20.20215833 467.90475819 -22.18388692 467.90166643 -24.16552734 467.88891602 C-27.1726796 467.87506825 -30.17670436 467.90914458 -33.18359375 467.94726562 C-52.4223788 468.02609507 -52.4223788 468.02609507 -59.3125 462.3125 C-66.667066 454.63288593 -67.60753555 446.49980514 -67.79101562 436.27734375 C-67.89786052 433.34301797 -67.98864616 430.90719247 -69.41015625 428.296875 C-72.67119999 426.60943553 -74.69310677 426.71804664 -78.3125 427.3125 C-81.05552149 429.26832751 -83.19508578 431.68712474 -85.4375 434.1875 C-86.75735349 435.57831687 -88.08294794 436.96370694 -89.4140625 438.34375 C-90.07051758 439.024375 -90.72697266 439.705 -91.40332031 440.40625 C-115.96776155 464.93299644 -150.64006065 474.7844013 -184.46044922 475.31933594 C-228.53802186 475.21368861 -266.92599006 455.55894492 -297.6875 424.94921875 C-334.13547922 386.22324083 -343.93012642 333.25053877 -342.62628174 281.93139648 C-341.06575317 234.03101062 -321.75061039 190.36068034 -287.79296875 156.82421875 C-256.26264399 127.33139478 -214.88640374 116.24957052 -172.68994141 117.17626953 C-138.53569537 118.5538949 -107.51083441 133.72625201 -83.1875 157.37890625 C-80.1811076 160.27121679 -78.81915379 161.29561154 -74.5625 161.4375 C-70.94871382 160.18657402 -70.20058433 159.52519545 -68.3125 156.3125 C-67.86637152 153.88856532 -67.86637152 153.88856532 -67.93395996 151.23594666 C-67.92165596 149.69913239 -67.92165596 149.69913239 -67.90910339 148.13127136 C-67.91832573 146.453554 -67.91832573 146.453554 -67.92773438 144.74194336 C-67.9223616 143.55933929 -67.91698883 142.37673523 -67.91145325 141.15829468 C-67.89910522 137.91606561 -67.89975417 134.67413089 -67.90518379 131.43189311 C-67.90697111 128.02970377 -67.88954247 124.6276226 -67.87341309 121.22547913 C-67.83555849 112.56700126 -67.82277548 103.90854788 -67.8125 95.25 C-67.8014113 85.925209 -67.78585318 76.60054817 -67.74178743 67.27584559 C-67.72651854 63.89462302 -67.71748886 60.51362536 -67.72319031 57.13236809 C-67.72773512 53.35102529 -67.71426835 49.57011702 -67.69726562 45.78881836 C-67.70648796 44.13235542 -67.70648796 44.13235542 -67.71589661 42.44242859 C-67.60428313 28.23291626 -63.50970416 17.0523487 -53.8046875 6.7109375 C-39.08631529 -7.45376553 -17.59879237 -11.98855116 0 0 Z M-232.3125 214.3125 C-232.96734375 214.89515625 -233.6221875 215.4778125 -234.296875 216.078125 C-246.18789345 226.87822432 -253.54247789 243.76129081 -258.125 258.875 C-258.41745605 259.82789917 -258.41745605 259.82789917 -258.71582031 260.80004883 C-261.93333318 272.15355652 -262.67962803 283.81826603 -262.625 295.5625 C-262.62008545 296.82594238 -262.6151709 298.08938477 -262.61010742 299.39111328 C-262.22429803 330.34687582 -251.3113372 358.24200535 -229.3125 380.3125 C-218.33589053 390.50749332 -205.56837277 397.76165307 -191.3125 402.3125 C-190.31863281 402.6321875 -189.32476563 402.951875 -188.30078125 403.28125 C-166.56478046 409.05612844 -143.3709021 405.8934686 -123.3125 396.3125 C-122.38953125 395.87164063 -121.4665625 395.43078125 -120.515625 394.9765625 C-96.92560935 382.91500083 -80.09421732 360.41642947 -71.4375 335.75 C-67.47720955 322.52246308 -65.74990676 309.7544244 -65.875 296 C-65.87804138 295.28393585 -65.88108276 294.5678717 -65.88421631 293.83010864 C-65.95637771 282.29566958 -66.80376366 271.3585218 -70.3125 260.3125 C-70.53212402 259.61431152 -70.75174805 258.91612305 -70.97802734 258.19677734 C-79.92842213 230.66148637 -97.55238646 208.95250374 -123.3125 195.5 C-160.43810559 177.71922216 -203.37108135 185.71768517 -232.3125 214.3125 Z " fill="#FFFFFF" transform="translate(2985.3125,1027.6875)"/>
<path d="M0 0 C2.54872594 2.17967794 5.03940404 4.41753734 7.52905273 6.66455078 C8.98659383 7.89465677 10.444818 9.12395437 11.90405273 10.35205078 C15.82843207 13.82676165 19.22094161 17.60397996 22.52905273 21.66455078 C23.30249023 22.61201172 24.07592773 23.55947266 24.87280273 24.53564453 C44.51880608 49.07876797 56.77546758 78.66136874 61.52905273 109.66455078 C61.70637939 110.80641846 61.88370605 111.94828613 62.06640625 113.12475586 C63.60083859 124.00918712 63.88777317 134.74520218 63.84155273 145.72705078 C63.83881851 147.07759048 63.83881851 147.07759048 63.83602905 148.45541382 C63.78868275 162.36705311 63.30130712 175.98882345 60.52905273 189.66455078 C60.36276367 190.49535156 60.19647461 191.32615234 60.02514648 192.18212891 C50.97308672 235.59848963 27.46893402 274.81393764 -9.62719727 299.78955078 C-45.81058625 322.71763885 -88.49742106 331.09804639 -130.53735352 321.88720703 C-152.45784002 316.66844998 -171.39178397 306.29410426 -188.34594727 291.60205078 C-192.88828003 287.83344871 -195.53257949 286.26194958 -201.47094727 286.66455078 C-204.90914925 287.83224202 -206.80923402 288.86162629 -209.11585999 291.66049194 C-211.06802306 295.98819305 -210.87852152 299.90851175 -210.83984375 304.60449219 C-210.84361023 305.60192444 -210.84737671 306.59935669 -210.85125732 307.62701416 C-210.85768655 309.79045294 -210.85736282 311.95391997 -210.85107231 314.11735916 C-210.84195449 317.54867612 -210.85219615 320.97944744 -210.86769104 324.41073608 C-210.90775995 334.16574245 -210.90899999 343.92070628 -210.90673828 353.67578125 C-210.906687 359.64686684 -210.92594748 365.61765974 -210.95607185 371.58866501 C-210.96684864 374.95600442 -210.95479218 378.32277327 -210.94224548 381.69009399 C-210.95115753 383.77614898 -210.96123456 385.86219943 -210.97265625 387.94824219 C-210.958041 389.33585251 -210.958041 389.33585251 -210.94313049 390.75149536 C-211.02850785 398.6227315 -212.89316738 406.6052494 -217.65844727 413.03955078 C-226.85708949 421.62495019 -236.33534448 421.95932061 -248.2734375 422.06958008 C-250.0142008 422.09103116 -251.75486009 422.12497862 -253.49511719 422.17211914 C-264.32218909 422.46228673 -273.33054642 422.3421214 -282.47094727 415.66455078 C-290.00197272 408.20468463 -291.77323899 399.49020909 -291.86773912 389.16469199 C-291.87235971 386.87591175 -291.86223206 384.58744883 -291.85189819 382.2986908 C-291.85535773 380.63020238 -291.86012429 378.96171626 -291.86607993 377.29323488 C-291.87857872 372.72271554 -291.87242464 368.15238464 -291.86312127 363.58186471 C-291.8563266 358.6472506 -291.86681406 353.71266862 -291.87506104 348.77806091 C-291.88839578 339.11711047 -291.88552185 329.45622999 -291.87682311 319.79527681 C-291.87004636 311.94372304 -291.86912981 304.09218887 -291.87239456 296.24063301 C-291.87285426 295.12291626 -291.87331396 294.00519951 -291.87378759 292.85361256 C-291.87474677 290.58296421 -291.87571941 288.31231587 -291.87670536 286.04166753 C-291.8852584 264.75382041 -291.87542626 243.46601205 -291.85930426 222.17817128 C-291.84589933 203.91246262 -291.8482308 185.64681115 -291.86206055 167.38110352 C-291.8781147 146.16757263 -291.88443637 124.95407572 -291.87522376 103.74053961 C-291.87426811 101.47857734 -291.873325 99.21661507 -291.87239456 96.95465279 C-291.87193174 95.84173282 -291.87146891 94.72881286 -291.87099206 93.58216805 C-291.86840182 85.73958931 -291.87277387 77.89703212 -291.87983322 70.05445671 C-291.8882465 60.49772613 -291.8859716 50.94106948 -291.86999099 41.38434737 C-291.86210628 36.50843578 -291.85902018 31.63264744 -291.86893845 26.75673676 C-291.87788149 22.29275405 -291.87295887 17.82900882 -291.85700579 13.36504764 C-291.85365637 11.75078631 -291.85535569 10.13650489 -291.86263315 8.52225649 C-291.93974458 -10.00417501 -291.93974458 -10.00417501 -285.34594727 -17.58544922 C-284.82774414 -18.20935547 -284.30954102 -18.83326172 -283.77563477 -19.47607422 C-276.57364575 -25.28649247 -269.22973017 -25.99213555 -260.22094727 -25.83544922 C-259.11428711 -25.82336426 -258.00762695 -25.8112793 -256.86743164 -25.79882812 C-243.90280951 -25.48406022 -233.20250174 -22.59747609 -223.54125977 -13.52294922 C-216.12802218 -5.63246457 -212.95378113 2.7083253 -211.72192383 13.30712891 C-211.45347063 15.5698876 -211.45347063 15.5698876 -210.47094727 18.66455078 C-208.00492459 20.22857069 -208.00492459 20.22857069 -205.47094727 20.66455078 C-201.57127106 16.85603584 -197.75204281 13.06142678 -194.28344727 8.85205078 C-146.55351983 -46.20436665 -53.94810115 -44.62101645 0 0 Z M-177.47094727 60.66455078 C-178.32043945 61.32841797 -179.16993164 61.99228516 -180.04516602 62.67626953 C-200.22382067 79.21561771 -210.64053037 107.50770396 -213.47094727 132.66455078 C-215.56386979 164.33542734 -209.88640837 195.99325981 -188.84594727 220.72705078 C-187.08088879 222.73330484 -185.28291655 224.69973133 -183.47094727 226.66455078 C-182.87797852 227.33873047 -182.28500977 228.01291016 -181.67407227 228.70751953 C-167.85229403 243.6583044 -144.82719724 254.6015043 -124.58105469 255.84155273 C-93.89203451 256.46745215 -70.31049885 250.46594093 -47.47094727 228.66455078 C-46.85735352 228.12572266 -46.24375977 227.58689453 -45.61157227 227.03173828 C-25.76221192 208.91236806 -18.13812118 179.21541869 -16.65844727 153.35205078 C-15.76268878 132.1175335 -19.17207853 110.90648699 -28.47094727 91.66455078 C-28.89891602 90.76865234 -29.32688477 89.87275391 -29.76782227 88.94970703 C-41.79170685 65.40856221 -62.05700475 48.56162846 -87.03344727 40.41455078 C-119.76753312 31.03963359 -151.60368161 38.92170183 -177.47094727 60.66455078 Z " fill="#FFFFFF" transform="translate(4327.470947265625,1177.33544921875)"/>
<path d="M0 0 C4.82674645 2.8750112 9.05481688 6.17182208 13.2265625 9.921875 C13.83757812 10.44007812 14.44859375 10.95828125 15.078125 11.4921875 C26.36036168 21.74408293 31.77915995 36.22777101 37.0390625 50.109375 C37.76704929 51.99451002 38.4966689 53.87901517 39.2277832 55.76293945 C40.77645293 59.75854109 42.31726429 63.75704559 43.85253906 67.7578125 C47.40746648 77.00758345 51.04447878 86.2251529 54.67123413 95.44692993 C56.7811836 100.81581228 58.88433156 106.18735809 60.98828125 111.55859375 C66.39207319 125.34987935 71.8088883 139.13603827 77.2265625 152.921875 C86.74829796 177.15275785 96.2563969 201.38896734 105.75878906 225.62744141 C108.66297619 233.03523349 111.56770275 240.44281402 114.47299194 247.85017395 C116.54401887 253.13060468 118.61436182 258.41130123 120.68310547 263.69262695 C124.60607066 273.70541601 128.53671809 283.71502523 132.48986816 293.71594238 C134.36885187 298.47067122 136.24414592 303.22685125 138.11914062 307.9831543 C139.01898066 310.2626951 139.92065282 312.54151358 140.82421875 314.81958008 C142.07226903 317.96648297 143.31414023 321.11575833 144.5546875 324.265625 C144.92861633 325.20365967 145.30254517 326.14169434 145.68780518 327.1081543 C146.02447205 327.96642822 146.36113892 328.82470215 146.70800781 329.70898438 C147.00298157 330.45450562 147.29795532 331.20002686 147.60186768 331.96813965 C148.2265625 333.921875 148.2265625 333.921875 148.2265625 336.921875 C148.8865625 336.921875 149.5465625 336.921875 150.2265625 336.921875 C150.31832764 336.29104004 150.41009277 335.66020508 150.50463867 335.01025391 C151.51799941 330.67511242 153.15299701 326.6470273 154.77734375 322.5078125 C155.14310516 321.56636383 155.50886658 320.62491516 155.88571167 319.65493774 C157.09948971 316.5340072 158.31921372 313.41543722 159.5390625 310.296875 C160.39588604 308.09777189 161.25240764 305.89855111 162.10864258 303.69921875 C164.80798123 296.7708381 167.51611427 289.84591593 170.2265625 282.921875 C170.65932495 281.81622192 171.0920874 280.71056885 171.53796387 279.57141113 C175.75219624 268.80658331 179.97286393 258.0442877 184.19804382 247.28375244 C188.9714821 235.12687688 193.73104374 222.96467547 198.4765625 210.796875 C198.79974457 209.96824951 199.12292664 209.13962402 199.4559021 208.28588867 C201.06787087 204.15260952 202.67952095 200.0192062 204.29101562 195.88574219 C207.26632729 188.25458388 210.24457943 180.62457296 213.22253418 172.9944458 C214.89065686 168.72029973 216.55860089 164.44608393 218.2265625 160.171875 C218.89322831 158.46354133 219.55989497 156.755208 220.2265625 155.046875 C220.5565625 154.20125 220.8865625 153.355625 221.2265625 152.484375 C224.22656246 144.7968751 224.22656246 144.7968751 225.22651672 142.23449707 C225.89334028 140.52575852 226.56015954 138.81701828 227.22697449 137.10827637 C228.8912054 132.84362913 230.55551058 128.57901091 232.2199707 124.31445312 C235.93473881 114.79647903 239.64768481 105.27779816 243.358078 95.75811768 C245.04269927 91.43662252 246.72868437 87.11566856 248.41772461 82.79589844 C248.74459763 81.95988098 249.07147064 81.12386353 249.4082489 80.26251221 C250.06031002 78.59480926 250.71241937 76.92712517 251.36457825 75.25946045 C253.2485214 70.43800135 255.12078019 65.61222286 256.98240662 60.78210449 C258.14063602 57.78029512 259.30541003 54.78105057 260.47134399 51.78222656 C261.00367201 50.40840506 261.53310191 49.03345592 262.05917358 47.65722656 C267.21138439 34.1844562 272.84550777 22.18281835 283.2265625 11.921875 C283.97550781 11.15101562 284.72445313 10.38015625 285.49609375 9.5859375 C299.34952974 -3.87693728 317.10267602 -9.78863856 336.21411133 -9.6171875 C342.50634439 -9.37261523 347.52957955 -8.59069985 352.2265625 -4.078125 C358.36088385 2.57969423 360.75008623 8.59729315 360.57470703 17.65625 C359.97090045 23.32000653 357.88170985 28.21497522 355.6640625 33.421875 C355.17446045 34.6183667 354.6848584 35.8148584 354.18041992 37.04760742 C352.83690369 40.32820163 351.46704338 43.5971598 350.09094238 46.86419678 C348.62083574 50.3638229 347.17134648 53.87198548 345.71875 57.37890625 C343.53754026 62.63740023 341.34685185 67.89182029 339.14723206 73.14263916 C334.87533453 83.34108975 330.66485683 93.56384335 326.4765625 103.796875 C320.62923325 118.07922644 314.74994033 132.34803192 308.8515625 146.609375 C302.61073674 161.70036177 296.40124128 176.803705 290.2265625 191.921875 C283.65363389 208.01512545 277.03736262 224.08998166 270.39404297 240.15429688 C264.98464187 253.2352522 259.5927784 266.32314488 254.2265625 279.421875 C248.06349951 294.46567875 241.86268603 309.49362751 235.64910889 324.51663208 C230.0651996 338.01946527 224.51520185 351.53569241 218.9932251 365.06396484 C216.77688572 370.49076749 214.55511726 375.91534804 212.33224487 381.33947754 C210.64418487 385.45865816 208.95808389 389.57860024 207.27832031 393.70117188 C205.79293954 397.34515574 204.2979526 400.98504308 202.79510498 404.62185669 C202.26108811 405.91851304 201.73037119 407.21653481 201.20343018 408.51608276 C198.21018772 415.89212074 194.95310037 422.50443729 190.2265625 428.921875 C189.1128125 430.46875 189.1128125 430.46875 187.9765625 432.046875 C177.20254975 443.3106156 163.77169517 448.33971089 148.41796875 448.94140625 C134.09514996 449.11523483 120.51450684 443.45183325 110.2265625 433.609375 C101.14347958 424.34179195 96.79179138 412.55362502 92.05496216 400.71148682 C90.48382543 396.78383411 88.89418773 392.86374497 87.30607605 388.94293213 C86.48463618 386.91415173 85.66417754 384.88497378 84.84468079 382.85540771 C80.88813876 373.0599624 76.84670024 363.30077507 72.7890625 353.546875 C71.38490335 350.16687977 69.98152592 346.78656012 68.578125 343.40625 C68.2262915 342.55904892 67.87445801 341.71184784 67.51196289 340.838974 C63.21766802 330.49643047 58.93957588 320.14719422 54.6640625 309.796875 C54.2645639 308.82982635 53.86506531 307.86277771 53.45346069 306.86642456 C47.65332285 292.82383889 41.87900662 278.7708329 36.1192627 264.7116394 C30.37979429 250.70468839 24.59151102 236.71834841 18.78808594 222.73779297 C11.45439429 205.0700069 4.15323368 187.38883834 -3.14605713 169.70681763 C-5.97437887 162.85584287 -8.80504306 156.00583908 -11.63671875 149.15625 C-19.40546371 130.36228857 -27.16110299 111.56325157 -34.8671875 92.74349976 C-38.67994758 83.43313423 -42.51076156 74.13059712 -46.37109375 64.83984375 C-46.75557678 63.91425156 -47.14005981 62.98865936 -47.53619385 62.03501892 C-49.38952035 57.57458103 -51.24506136 53.11508261 -53.10400391 48.65698242 C-54.72054974 44.7763124 -56.32638486 40.891422 -57.92037964 37.00143433 C-58.47247991 35.65554055 -59.02710481 34.31067847 -59.58474731 32.96707153 C-63.48274866 23.54367544 -65.80406452 15.71645575 -63.14453125 5.5078125 C-60.53655054 -0.55018754 -55.34663389 -5.11841948 -49.63671875 -8.25 C-33.17750525 -13.0103728 -14.57066958 -7.69647106 0 0 Z " fill="#FFFFFF" transform="translate(1591.7734375,1050.078125)"/>
<path d="M0 0 C0.54027832 0.42748535 1.08055664 0.8549707 1.63720703 1.29541016 C32.41629683 25.90956226 54.97565986 59.36660224 64 98 C64.19464844 98.79986328 64.38929688 99.59972656 64.58984375 100.42382812 C67.833018 114.31860407 68.39310254 128.11042958 68.4375 142.3125 C68.4436734 143.14709747 68.4498468 143.98169495 68.45620728 144.84158325 C68.5342662 161.25190853 66.6328903 177.18738709 61.875 192.9375 C61.5756958 193.93982666 61.2763916 194.94215332 60.96801758 195.97485352 C52.86154348 222.14860331 38.82261188 245.1930043 20 265 C19.52191895 265.5053125 19.04383789 266.010625 18.55126953 266.53125 C-12.17955504 298.80394933 -56.85868842 319.61721474 -101.63916016 321.12231445 C-119.20081095 321.51654806 -136.75710582 321.7505064 -154 318 C-155.37406006 317.70198486 -155.37406006 317.70198486 -156.77587891 317.39794922 C-188.03039083 310.37239384 -217.12995536 296.7870327 -240.38671875 274.47265625 C-242.98066092 271.94998566 -242.98066092 271.94998566 -245.89453125 269.68359375 C-259.54729365 258.44440938 -270.06764296 241.59678005 -278 226 C-278.34901367 225.32501465 -278.69802734 224.6500293 -279.05761719 223.95458984 C-299.95334166 183.17422434 -303.8844366 133.06268586 -290.3125 89.3125 C-281.44187826 62.46119641 -267.95615627 38.92816168 -248.38525391 18.45263672 C-247.05117355 17.05366278 -245.73419271 15.6384433 -244.41796875 14.22265625 C-218.63567248 -12.71926354 -182.35154952 -28.81095705 -146 -35 C-144.06447266 -35.33837891 -144.06447266 -35.33837891 -142.08984375 -35.68359375 C-93.02646582 -42.80490486 -39.15341555 -31.14285457 0 0 Z M-185 59 C-185.70640625 59.62390625 -186.4128125 60.2478125 -187.140625 60.890625 C-201.42041158 74.27089747 -210.29543211 93.2546675 -215 112 C-215.16371094 112.64453125 -215.32742187 113.2890625 -215.49609375 113.953125 C-222.65327375 143.52824896 -217.74177013 176.25793684 -202.05761719 202.30664062 C-187.13651904 226.19693074 -164.55952343 242.59892643 -137.26953125 249.30859375 C-120.69092473 252.81446395 -101.30328039 252.89493164 -85 248 C-83.85273438 247.6596875 -82.70546875 247.319375 -81.5234375 246.96875 C-67.75171353 242.44942595 -55.7129126 235.78648148 -45 226 C-43.83210938 224.95392578 -43.83210938 224.95392578 -42.640625 223.88671875 C-22.59723772 204.98373109 -11.81925426 176.54627121 -10.71484375 149.375 C-9.95260236 116.9187074 -19.39975979 87.41781853 -41.734375 63.3359375 C-60.37796816 44.11375007 -85.12114171 33.15890221 -111.9465332 32.70776367 C-139.70971113 32.54062479 -164.08934454 40.22036675 -185 59 Z " fill="#FFFFFF" transform="translate(3334,1182)"/>
<path d="M0 0 C1.63242913 1.51285629 3.25749538 3.03369725 4.875 4.5625 C5.67421875 5.29726562 6.4734375 6.03203125 7.296875 6.7890625 C37.5402132 35.58765525 52.46350751 78.8844355 56.875 119.5625 C56.98585938 120.57441406 57.09671875 121.58632812 57.2109375 122.62890625 C57.81949917 129.19972755 58.02675837 135.77941434 58.125 142.375 C58.14643066 143.16350342 58.16786133 143.95200684 58.18994141 144.7644043 C58.22821889 151.49344476 57.00922586 157.02450168 52.5625 162.3125 C45.77231224 167.99730836 41.13183535 169.71186551 32.39910889 169.70053101 C31.52352082 169.70335229 30.64793274 169.70617357 29.7458117 169.70908034 C26.80025882 169.71743956 23.85474347 169.71876572 20.90917969 169.72021484 C18.80189406 169.7248821 16.69460944 169.73002552 14.58732605 169.73561096 C10.04309941 169.7469004 5.49887936 169.75533051 0.95464325 169.76173019 C-6.2306005 169.77239942 -13.41579698 169.79264146 -20.60101318 169.81484985 C-41.0352563 169.87681013 -61.46949682 169.93079151 -81.90380859 169.96386719 C-93.18468679 169.98220715 -104.46548602 170.01113546 -115.74630618 170.0518719 C-121.71737824 170.07295258 -127.68835074 170.08840069 -133.65946198 170.09067917 C-139.27700346 170.09282521 -144.89433766 170.10869037 -150.51181602 170.13506889 C-152.57294001 170.14226501 -154.6340891 170.14436135 -156.69522285 170.14096642 C-159.51078532 170.13706986 -162.32568635 170.15153254 -165.14117432 170.17050171 C-166.36235077 170.16220717 -166.36235077 170.16220717 -167.60819745 170.15374506 C-174.08192304 170.22894271 -178.65782349 171.65604542 -183.875 175.6875 C-187.1019696 179.81085004 -189.51460872 184.15815197 -188.89868164 189.54003906 C-187.76326201 195.45892163 -185.52116652 200.52382699 -182.6875 205.8125 C-182.24647949 206.63806396 -181.80545898 207.46362793 -181.35107422 208.31420898 C-169.90397215 229.04116502 -151.06418769 243.79777383 -128.375 250.5 C-125.63750734 251.24793533 -122.89036972 251.92602042 -120.125 252.5625 C-118.54912109 252.92988281 -118.54912109 252.92988281 -116.94140625 253.3046875 C-85.52543528 259.26922815 -54.41737301 250.76442759 -27.91015625 233.8984375 C-17.66734283 227.45557833 -5.45022499 227.03042735 6.25 229.18359375 C16.50613432 232.1883206 25.42794994 238.30251489 30.875 247.5625 C32.97430985 253.86042955 33.20203851 262.53402772 30.625 268.75 C15.15259663 293.96626986 -22.91025723 309.25053052 -50.31445312 315.86938477 C-98.35611568 326.81793145 -151.59386238 321.55486112 -194.125 295.5625 C-205.11845833 288.60014116 -214.84370742 280.65334198 -224.125 271.5625 C-224.93324219 270.80453125 -225.74148438 270.0465625 -226.57421875 269.265625 C-236.55952841 259.71597457 -244.25071221 248.48813692 -251.125 236.5625 C-251.78242187 235.44746094 -252.43984375 234.33242187 -253.1171875 233.18359375 C-268.67200165 206.03357897 -274.51230439 174.69368736 -274.44067383 143.73071289 C-274.43752362 140.8962516 -274.46103255 138.06284821 -274.48632812 135.22851562 C-274.54262987 119.23491482 -273.09459405 103.37264705 -268.4375 88 C-268.18403809 87.14196777 -267.93057617 86.28393555 -267.66943359 85.39990234 C-259.87413931 59.90971091 -246.99868581 36.34758939 -228.5 17.078125 C-226.09927969 14.60488899 -226.09927969 14.60488899 -224.0234375 11.9296875 C-203.47981513 -13.68643421 -166.55677543 -29.38625207 -135.125 -35.4375 C-134.01125 -35.66308594 -132.8975 -35.88867188 -131.75 -36.12109375 C-85.35959062 -43.90652125 -35.28282111 -31.21595388 0 0 Z M-169.125 54.5625 C-177.22825186 64.01413297 -185.17307832 75.04328321 -186.4375 87.6875 C-185.64756191 97.48273232 -181.51886448 105.13130865 -174.125 111.5625 C-169.27398628 114.68409707 -164.39564113 116.67892677 -158.61080933 116.70967102 C-157.22317635 116.72040398 -157.22317635 116.72040398 -155.80751038 116.73135376 C-154.28800026 116.73538712 -154.28800026 116.73538712 -152.73779297 116.73950195 C-151.66916519 116.74607315 -150.60053741 116.75264435 -149.49952698 116.75941467 C-145.95541312 116.77915895 -142.41134171 116.79081398 -138.8671875 116.80078125 C-137.05124273 116.80689454 -137.05124273 116.80689454 -135.19861221 116.81313133 C-128.78865987 116.83399872 -122.37872897 116.84829653 -115.96875 116.85766602 C-109.35453269 116.86872064 -102.7406527 116.90310822 -96.12655449 116.94283772 C-91.03579085 116.96901331 -85.94510739 116.97735882 -80.85428238 116.98094749 C-78.41670585 116.98581241 -75.97913287 116.9974236 -73.54162216 117.01598549 C-70.12366983 117.04039175 -66.70658743 117.03940845 -63.28857422 117.0324707 C-62.28771286 117.04528076 -61.2868515 117.05809082 -60.25566101 117.07128906 C-50.79523611 117.00155347 -43.77661989 113.90084986 -36.8515625 107.5 C-31.00512176 100.93928822 -29.53273171 93.16769465 -29.5859375 84.6015625 C-30.52854398 73.84321035 -38.26666659 63.44053765 -45.125 55.5625 C-45.79208984 54.68271484 -45.79208984 54.68271484 -46.47265625 53.78515625 C-58.20770064 38.69724203 -77.28009472 31.06445033 -95.6015625 27.9765625 C-123.79625785 24.66321693 -149.3665483 34.09096133 -169.125 54.5625 Z " fill="#FFFFFF" transform="translate(2202.125,1182.4375)"/>
<path d="M0 0 C8.36394566 7.40624195 15.12053001 15.45411895 21 25 C21.51771973 25.83990479 21.51771973 25.83990479 22.04589844 26.69677734 C36.86296171 51.2179736 40.6336607 79.50237961 40.53344727 107.66943359 C40.54053144 109.81436244 40.54928676 111.9592863 40.55955505 114.10420227 C40.58175716 119.84508927 40.57918209 125.58569693 40.57023358 131.32661009 C40.56507483 136.14097112 40.57245394 140.95528187 40.57970566 145.7696377 C40.59660545 157.12251286 40.59323233 168.47525322 40.57641602 179.828125 C40.55942988 191.51422616 40.57544073 203.19995551 40.6076389 214.88601625 C40.63434461 224.9630341 40.64161031 235.03993625 40.63312382 245.11698592 C40.62820672 251.11752778 40.63034734 257.11784513 40.65091133 263.11835861 C40.66928888 268.74777715 40.66328401 274.37665839 40.63871193 280.0060482 C40.63371439 282.06593878 40.63716621 284.12587055 40.64986038 286.18572807 C40.77257385 307.81284608 40.77257385 307.81284608 33.24465275 315.88141441 C26.86836207 322.00745225 20.17802469 323.46362862 11.62890625 323.43359375 C10.74774643 323.4388356 9.86658661 323.44407745 8.95872498 323.44947815 C7.10392302 323.45587228 5.24908038 323.45459533 3.39428711 323.44604492 C0.57396457 323.43753459 -2.24433015 323.46633248 -5.06445312 323.49804688 C-6.8749994 323.49965928 -8.68554922 323.49908061 -10.49609375 323.49609375 C-11.32966904 323.50732773 -12.16324432 323.51856171 -13.02207947 323.53013611 C-20.8114666 323.4385275 -27.45283491 320.54716509 -33 315 C-37.14578942 308.54055472 -39.1497365 303.3989902 -39.13803101 295.69908142 C-39.14085229 294.94967759 -39.14367357 294.20027376 -39.14658034 293.42816073 C-39.15493378 290.90904663 -39.1562653 288.38997644 -39.15771484 285.87084961 C-39.16238299 284.06712215 -39.16752655 282.26339587 -39.17311096 280.45967102 C-39.18440099 276.56862943 -39.19283126 272.67759555 -39.19923019 268.78654289 C-39.20992004 262.61902401 -39.23017205 256.45155982 -39.25234985 250.28407288 C-39.31422637 232.74303726 -39.36813581 215.20200362 -39.40136719 197.66088867 C-39.41979225 187.97777722 -39.44883402 178.29475633 -39.4893719 168.61171156 C-39.51032576 163.49374718 -39.52588239 158.3758964 -39.52817917 153.25788689 C-39.53034841 148.4290642 -39.54644601 143.60047722 -39.57256889 138.77172661 C-39.57968007 137.01354783 -39.58190342 135.25534022 -39.57846642 133.49715042 C-39.53845804 109.10752601 -43.2049232 83.69127251 -60.6484375 65.28515625 C-75.3515104 50.99728641 -94.1005678 45.57441206 -114.30859375 45.78515625 C-130.71566147 46.74006495 -145.58022381 51.30910982 -159 61 C-159.70769531 61.51046875 -160.41539062 62.0209375 -161.14453125 62.546875 C-176.59839675 74.86119781 -184.60772128 95.90858009 -187 115 C-187.09192996 117.41859541 -187.13723746 119.83925232 -187.14476013 122.25958252 C-187.14828698 122.95608972 -187.15181382 123.65259693 -187.15544754 124.37021041 C-187.16605546 126.68594149 -187.16980164 129.00163132 -187.17358398 131.31738281 C-187.17989547 132.985277 -187.18666193 134.65316953 -187.19384766 136.32106018 C-187.20847763 139.904835 -187.22021857 143.48860349 -187.22979546 147.07239532 C-187.24530049 152.74684153 -187.26925019 158.42123287 -187.29469299 164.09564209 C-187.36575412 180.22892787 -187.42561524 196.3622448 -187.47680664 212.49560547 C-187.50517345 221.41213571 -187.5405874 230.32861103 -187.58346039 239.24508357 C-187.61012367 244.8777838 -187.62809561 250.51042199 -187.63949764 256.14317274 C-187.64867069 259.65856235 -187.66605428 263.17387699 -187.68567657 266.68922234 C-187.69310369 268.3100535 -187.69723019 269.93090397 -187.69767189 271.55175209 C-187.70531954 287.08801176 -188.55799296 300.43742577 -199.625 312.3125 C-209.16754177 321.41153533 -219.67281592 323.48803004 -232.40234375 323.2734375 C-242.27929934 322.86717706 -249.92651483 318.76954636 -257 312 C-263.85809912 304.49895409 -268.11547418 295.50259471 -268.13142776 285.26126671 C-268.13526891 284.33151193 -268.13911005 283.40175715 -268.1430676 282.44382799 C-268.14220112 281.43090326 -268.14133463 280.41797854 -268.14044189 279.37435913 C-268.14341302 278.2916233 -268.14638414 277.20888747 -268.1494453 276.09334147 C-268.15812965 272.45854146 -268.15964034 268.82377441 -268.16113281 265.18896484 C-268.1657612 262.58541799 -268.17078589 259.98187181 -268.17617798 257.37832642 C-268.18974747 250.29959899 -268.19578404 243.22087723 -268.20018864 236.14213896 C-268.20295376 231.71926599 -268.20719164 227.2963952 -268.21169281 222.87352371 C-268.22388435 210.62001622 -268.23418345 198.36651048 -268.2375679 186.11299706 C-268.23778747 185.32905525 -268.23800703 184.54511345 -268.23823325 183.73741583 C-268.23845153 182.95163022 -268.23866981 182.1658446 -268.2388947 181.35624731 C-268.23933816 179.76402815 -268.23978473 178.171809 -268.24023438 176.57958984 C-268.2404558 175.78979924 -268.24067723 175.00000863 -268.24090537 174.18628497 C-268.24485106 161.39675185 -268.26229859 148.60727578 -268.2855939 135.81776468 C-268.30933575 122.6766368 -268.32177106 109.53553751 -268.32293582 96.39438784 C-268.32385106 89.02033354 -268.32956515 81.64635356 -268.34775543 74.27231979 C-268.36481255 67.33333767 -268.36638787 60.39449853 -268.35761642 53.45550156 C-268.35684643 50.91227338 -268.36118373 48.36903761 -268.37107468 45.82582855 C-268.3838109 42.34623302 -268.37790773 38.86713522 -268.36749268 35.38754272 C-268.37554908 34.38800233 -268.38360548 33.38846194 -268.39190602 32.35863245 C-268.30090471 19.30327777 -263.91148305 5.32145868 -254.8046875 -4.3515625 C-243.11479781 -15.02934053 -230.08022167 -20.41662462 -214.28125 -20.203125 C-206.13044912 -19.69855161 -200.85903422 -16.86071487 -194.94921875 -11.25 C-187.85135168 -3.05687087 -187.84344936 7.05989334 -187.4375 17.375 C-187.39431641 18.39722656 -187.35113281 19.41945313 -187.30664062 20.47265625 C-187.20112208 22.98165288 -187.09900787 25.49073943 -187 28 C-185.948125 26.74896484 -185.948125 26.74896484 -184.875 25.47265625 C-182.39582109 22.52819234 -179.90503677 19.59376323 -177.41015625 16.66259766 C-176.22429352 15.26444579 -175.04845711 13.8577987 -173.875 12.44921875 C-168.83029284 6.53219764 -163.16881155 1.71783757 -157 -3 C-156.20851563 -3.60714844 -155.41703125 -4.21429687 -154.6015625 -4.83984375 C-110.36911706 -37.24268169 -41.99107312 -35.66983631 0 0 Z " fill="#FFFFFF" transform="translate(2566,1172)"/>
<path d="M0 0 C0.75700195 0.27956543 1.51400391 0.55913086 2.29394531 0.84716797 C12.82486821 4.82587792 22.96257562 9.75236085 28.5 20.125 C29.03343156 21.40322281 29.5362029 22.69489654 30 24 C30.4125 25.11375 30.825 26.2275 31.25 27.375 C33.13459719 36.4838864 32.12244171 44.60038687 28 53 C23.48330142 59.46003255 18.47629888 64.34313345 11 67 C9.88625 67.4125 8.7725 67.825 7.625 68.25 C-4.0762316 70.67094447 -13.22652042 67.02608249 -23.9375 62.51879883 C-50.52544884 51.33560941 -81.49073482 42.22176147 -109.875 52.1875 C-119.49229611 56.23999701 -125.80687676 61.34084111 -130 71 C-132.14340242 77.43020725 -132.33523256 86.11750436 -129.5 92.375 C-113.99631116 117.62232661 -71.16568878 124.54238204 -44.75 133.0078125 C-21.86944077 140.38064536 1.33087831 149.51434126 20 165 C20.87140625 165.71929688 21.7428125 166.43859375 22.640625 167.1796875 C38.23114751 180.61814402 48.79778392 198.28670345 51 219 C52.52471012 252.27754587 46.071595 279.19950776 24.296875 305.01953125 C1.66166452 329.42669003 -34.87625843 338.68339306 -66.87304688 340.12988281 C-110.19146786 341.53227774 -165.86941836 331.78331807 -200.75 303.5 C-207.67796122 296.82113402 -210.12940051 289.26125825 -210.3125 279.875 C-210.30052772 268.84587118 -206.94963876 262.09062688 -199.3828125 254.13671875 C-191.36326841 246.94542266 -182.18367078 246.35294743 -171.92529297 246.82958984 C-167.4722832 247.22373146 -163.9115215 248.94918755 -160 251 C-157.52164406 252.25163898 -155.04241729 253.50146501 -152.5625 254.75 C-151.88630615 255.09264893 -151.2101123 255.43529785 -150.51342773 255.78833008 C-119.31918449 271.47038563 -81.10133249 282.99334001 -46.5625 271.8125 C-36.7810294 267.99561215 -29.85291738 262.40352187 -25 253 C-22.1113181 245.71852943 -21.66819558 237.71950109 -23.8046875 230.1484375 C-29.91550381 216.53606738 -43.94694807 210.49372078 -57.08666992 205.36328125 C-71.61052634 199.88660051 -86.44944802 195.4864323 -101.31811523 191.05493164 C-136.05538375 180.67631324 -175.31849848 167.74982795 -194.96875 134.6875 C-206.56972766 112.66530512 -209.00129752 84.92041201 -202.25390625 60.9296875 C-201.84529979 59.61684108 -201.42742533 58.30684068 -201 57 C-200.79101074 56.3493457 -200.58202148 55.69869141 -200.36669922 55.02832031 C-191.86095738 29.47923809 -172.56833109 10.30000937 -149 -2 C-102.57950433 -25.1419824 -46.86013206 -17.43027143 0 0 Z " fill="#FFFFFF" transform="translate(3932,1162)"/>
<path d="M0 0 C2.27442293 1.43062353 4.35336355 2.95518961 6.44140625 4.64453125 C7.055 5.12277344 7.66859375 5.60101562 8.30078125 6.09375 C15.08265969 12.05039987 20.03933316 21.77321118 21.44140625 30.64453125 C21.52559661 32.60703933 21.55921118 34.57206851 21.55493164 36.53637695 C21.55481834 38.27761589 21.55481834 38.27761589 21.55470276 40.05403137 C21.54954147 41.29690414 21.54438019 42.53977692 21.5390625 43.8203125 C21.53764755 45.10060837 21.5362326 46.38090424 21.53477478 47.69999695 C21.53097022 51.09150165 21.52115768 54.48296302 21.5100708 57.87445068 C21.49981222 61.34012262 21.49526766 64.80580161 21.49023438 68.27148438 C21.4792138 75.06251873 21.46248195 81.85352106 21.44140625 88.64453125 C22.34849838 88.6356488 23.25559052 88.62676636 24.19017029 88.61761475 C32.76682656 88.53724245 41.34335511 88.47645215 49.92030239 88.43728256 C54.32911267 88.41646756 58.73761001 88.38826231 63.14624023 88.34277344 C67.40620534 88.29909695 71.6658707 88.27534842 75.92604256 88.26502228 C77.54585547 88.25766981 79.16565323 88.24331258 80.78533745 88.22161102 C90.49344334 88.09678839 98.9875266 88.06472914 106.78125 94.609375 C107.30847656 95.26035156 107.83570312 95.91132812 108.37890625 96.58203125 C108.92417969 97.23042969 109.46945312 97.87882812 110.03125 98.546875 C116.13215408 107.62218106 114.5302996 121.89923888 112.859375 132.25 C109.94323021 141.47780063 102.62365756 149.06941391 94.27734375 153.75390625 C85.22705966 158.14425683 75.90231645 157.78335887 66.0703125 157.7421875 C64.79284653 157.74077255 63.51538055 157.7393576 62.19920349 157.73789978 C58.82415879 157.73326641 55.44918328 157.72430148 52.07415771 157.7131958 C48.62171014 157.70291551 45.16925538 157.69838806 41.71679688 157.69335938 C34.9583144 157.68235591 28.19986432 157.66563692 21.44140625 157.64453125 C21.52539801 180.14139461 21.62056515 202.6381862 21.72893333 225.13494587 C21.77899492 235.58124143 21.82543848 246.02752939 21.86328125 256.47387695 C21.89628511 265.58190133 21.93616242 274.68986564 21.98419631 283.79782361 C22.009378 288.61768294 22.03118365 293.43750286 22.04475021 298.25741005 C22.05764646 302.80050889 22.07978133 307.34347196 22.10878944 311.88649559 C22.11780641 313.54763184 22.12354159 315.20878992 22.12561989 316.86994934 C22.14627802 330.88238044 22.45799912 344.15119826 31.75390625 355.45703125 C44.65869162 365.96092632 57.43506486 366.01497367 73.33764648 365.50756836 C85.52696303 365.14977569 95.37068947 365.84963374 104.68359375 374.578125 C111.42009412 382.49725543 112.64984662 390.84924455 112.75390625 400.83203125 C112.78291016 401.74017578 112.81191406 402.64832031 112.84179688 403.58398438 C112.91441597 411.38774353 111.15267523 418.00028577 105.75390625 423.83203125 C89.28714424 436.4799059 61.83625127 437.87883963 42.06640625 437.89453125 C40.92440765 437.89554337 40.92440765 437.89554337 39.75933838 437.89657593 C28.39365747 437.88056118 17.49925529 437.44856659 6.44140625 434.64453125 C5.76561523 434.47824219 5.08982422 434.31195312 4.39355469 434.140625 C-16.43025331 428.87371338 -32.96416357 417.11481723 -44.68359375 399.01953125 C-53.80818825 383.13229451 -57.75016803 364.40091345 -57.67884827 346.20361328 C-57.67970269 345.39231807 -57.68055712 344.58102285 -57.68143743 343.74514294 C-57.68307446 341.04752019 -57.67760017 338.34996069 -57.67211914 335.65234375 C-57.67183686 333.71030173 -57.6719958 331.76825961 -57.67256165 329.82621765 C-57.67284802 324.56858521 -57.6669771 319.31097567 -57.65998769 314.05334854 C-57.65372756 308.55338915 -57.65314825 303.0534292 -57.65196228 297.5534668 C-57.64885681 287.14497538 -57.64065398 276.73649449 -57.63061279 266.3280077 C-57.61942731 254.47557026 -57.61393507 242.62313232 -57.60891736 230.77069092 C-57.59847072 206.39529853 -57.58088645 182.01991548 -57.55859375 157.64453125 C-58.24702362 157.64797546 -58.93545349 157.65141968 -59.64474487 157.65496826 C-60.54685699 157.65764709 -61.44896912 157.66032593 -62.37841797 157.66308594 C-63.72043777 157.66825226 -63.72043777 157.66825226 -65.08956909 157.67352295 C-76.03100137 157.54504683 -84.60291504 153.25406599 -92.51171875 145.91796875 C-101.57587882 135.85052379 -102.41308321 122.59892438 -101.74951172 109.72949219 C-101.16699404 103.36798197 -98.90458876 98.54027098 -94.24609375 94.20703125 C-86.74106304 88.11941554 -79.40761751 88.25944564 -70.12109375 88.45703125 C-68.91259766 88.47056641 -67.70410156 88.48410156 -66.45898438 88.49804688 C-63.49172293 88.53323179 -60.52539438 88.58246429 -57.55859375 88.64453125 C-57.5674762 87.80230011 -57.57635864 86.96006897 -57.58551025 86.09231567 C-57.66596467 78.11933723 -57.72671399 70.14649693 -57.76584244 62.17320442 C-57.78663576 58.07492754 -57.81480021 53.97698866 -57.86035156 49.87890625 C-57.90410695 45.91719153 -57.9277928 41.95580004 -57.93810272 37.99386215 C-57.94544127 36.48930658 -57.95977058 34.98476685 -57.98151398 33.48035049 C-58.14578656 21.63332432 -56.85484816 12.25595418 -48.48046875 3.3984375 C-35.21291369 -8.70955482 -15.2702303 -8.08972506 0 0 Z " fill="#FFFFFF" transform="translate(4891.55859375,1063.35546875)"/>
<path d="M0 0 C0 27.72 0 55.44 0 84 C-10.395 84.495 -10.395 84.495 -21 85 C-44.83384613 88.92386491 -64.74302641 95.65851217 -83 112 C-83.62132813 112.53882813 -84.24265625 113.07765625 -84.8828125 113.6328125 C-95.33209483 123.30447382 -102.22836225 136.1767513 -108 149 C-108.47179688 150.03253906 -108.94359375 151.06507813 -109.4296875 152.12890625 C-112.25012835 158.84716131 -114.03910215 165.73440712 -115.6875 172.8125 C-115.99143677 174.10921631 -115.99143677 174.10921631 -116.30151367 175.43212891 C-120.09406352 192.6054022 -120.29763813 209.45195453 -120.30592227 226.97091365 C-120.31045408 230.45937232 -120.32848692 233.94775733 -120.34571838 237.43617249 C-120.39448503 247.77149037 -120.42580994 258.10685032 -120.44702148 268.44226074 C-120.46358568 276.50716701 -120.48646019 284.57193193 -120.53004223 292.63674361 C-120.55168306 296.77060778 -120.55988969 300.90420234 -120.55764949 305.0381192 C-120.55971893 308.21679574 -120.58109671 311.3953562 -120.59936523 314.57397461 C-120.59478806 315.7040242 -120.59021088 316.83407379 -120.585495 317.99836731 C-120.66346725 326.54772387 -121.71313047 334.25592042 -127.625 340.8125 C-128.23601563 341.52019531 -128.84703125 342.22789062 -129.4765625 342.95703125 C-135.76146612 348.04527365 -142.33749795 349.61580929 -150.27734375 349.56640625 C-151.12873428 349.57260483 -151.98012482 349.57880341 -152.85731506 349.58518982 C-154.64469266 349.59224314 -156.43213658 349.58919317 -158.21948242 349.57641602 C-160.92817099 349.56254776 -163.63339872 349.59668837 -166.34179688 349.63476562 C-176.43166486 349.68014508 -185.13293914 349.53561002 -192.87988281 342.22631836 C-198.71884925 335.98924057 -201.11960543 329.24873144 -201.13142776 320.78995228 C-201.13526891 319.75507893 -201.13911005 318.72020559 -201.1430676 317.65397245 C-201.14220112 316.52363716 -201.14133463 315.39330186 -201.14044189 314.22871399 C-201.14341302 313.02276602 -201.14638414 311.81681806 -201.1494453 310.57432622 C-201.15661804 307.23004748 -201.15930403 303.88582013 -201.16004276 300.5415374 C-201.16189595 296.93335085 -201.16944463 293.32517537 -201.17617798 289.71699524 C-201.18975126 281.82844325 -201.19578449 273.93989634 -201.20018864 266.05133462 C-201.20295283 261.12393031 -201.20719051 256.19652797 -201.21169281 251.26912498 C-201.2238843 237.62163192 -201.23418376 223.97414043 -201.2375679 210.32664204 C-201.23778747 209.45342033 -201.23800703 208.58019863 -201.23823325 207.68051566 C-201.23845153 206.80522615 -201.23866981 205.92993664 -201.2388947 205.0281232 C-201.23933816 203.25450726 -201.23978473 201.48089133 -201.24023438 199.70727539 C-201.2404558 198.82750403 -201.24067723 197.94773267 -201.24090537 197.04130157 C-201.24485239 182.78966062 -201.262304 168.53807084 -201.2855939 154.28644965 C-201.30932238 139.64806039 -201.32177044 125.0096968 -201.32293582 110.371288 C-201.32385175 102.15498612 -201.32958344 93.93875091 -201.34775543 85.72246742 C-201.36317664 78.72535031 -201.36826499 71.72832047 -201.36001733 64.73118959 C-201.35611792 61.16335574 -201.35700549 57.59569753 -201.37107468 54.02788544 C-201.38621097 50.1539165 -201.37792602 46.280193 -201.36749268 42.40620422 C-201.37554908 41.28702254 -201.38360548 40.16784086 -201.39190602 39.01474458 C-201.33026274 29.21227606 -199.8787057 20.98984241 -192.96875 13.7578125 C-184.0607832 5.80427072 -175.61314003 5.47044606 -164.11962891 5.87255859 C-152.30229468 6.58306867 -140.59163518 12.15704353 -132.58984375 20.94140625 C-123.87874651 32.22088597 -120.91776006 43.98042397 -120 58 C-118.783125 58.268125 -117.56625 58.53625 -116.3125 58.8125 C-115.62800781 58.96332031 -114.94351563 59.11414062 -114.23828125 59.26953125 C-110.64022361 58.83625729 -109.30836322 56.68288705 -107 54 C-105.90582654 52.46019953 -104.81310313 50.91861335 -103.76855469 49.34472656 C-87.21703071 24.45383525 -61.72666644 7.43308393 -32.47509766 1.44042969 C-8.48527331 -2.82842444 -8.48527331 -2.82842444 0 0 Z " fill="#FFFFFF" transform="translate(3642,1146)"/>
<path d="M0 0 C0.79148437 0.68835937 1.58296875 1.37671875 2.3984375 2.0859375 C3.64753906 3.11847656 3.64753906 3.11847656 4.921875 4.171875 C24.13225484 20.54502951 35.45072595 44.77889253 38.0234375 69.6484375 C38.16200942 71.45995042 38.28796028 73.27249436 38.3984375 75.0859375 C38.46224609 76.12427734 38.46224609 76.12427734 38.52734375 77.18359375 C39.27380664 103.01120983 30.16694734 129.21595396 12.3984375 148.0859375 C11.73787354 148.81369385 11.73787354 148.81369385 11.06396484 149.55615234 C3.70237702 157.63981592 -4.12612479 163.66214077 -13.6015625 169.0859375 C-14.57738281 169.65054687 -15.55320312 170.21515625 -16.55859375 170.796875 C-39.10275004 182.94789768 -67.04688356 185.42608011 -91.61157227 178.56396484 C-118.22867568 170.49817593 -140.57513084 153.04189315 -153.8203125 128.484375 C-154.408125 127.36289063 -154.9959375 126.24140625 -155.6015625 125.0859375 C-156.08625 124.17070313 -156.5709375 123.25546875 -157.0703125 122.3125 C-168.37730289 99.3537939 -168.5457592 70.85956359 -160.87011719 46.79248047 C-151.83455473 20.70300422 -133.14527384 0.83171642 -108.9140625 -12.0390625 C-74.21289023 -28.87205657 -29.84464304 -25.20858198 0 0 Z " fill="#FFFFFF" transform="translate(1119.6015625,1566.9140625)"/>
</svg>
