<?xml version="1.0" encoding="UTF-8"?>
<svg version="1.1" xmlns="http://www.w3.org/2000/svg" width="2681" height="692">
<path d="M0 0 C1.39629639 0.02767456 1.39629639 0.02767456 2.82080078 0.0559082 C33.41407318 1.00427352 60.77703238 13.7621672 81.88671875 35.8046875 C97.59830973 53.72369209 105.10432748 75.73439259 113.15186691 97.83089447 C114.39387469 101.23437513 115.64670103 104.63386946 116.89868164 108.03369141 C118.72540929 112.99668362 120.54938453 117.96066873 122.36944675 122.92610931 C125.56950297 131.65614644 128.78766041 140.37934934 132.01953125 149.09765625 C132.25411608 149.7304739 132.4887009 150.36329155 132.73039436 151.01528549 C134.38166306 155.46893204 136.03435512 159.92204958 137.6875 164.375 C138.03595663 165.31371445 138.03595663 165.31371445 138.39145279 166.27139282 C141.24925107 173.96994006 144.10918254 181.66769226 146.97054386 189.36491585 C148.83656295 194.38546973 150.69932489 199.40722721 152.56152344 204.42919922 C155.07729896 211.21306032 157.59889903 217.99472918 160.12670612 224.77411652 C161.47436961 228.38883956 162.81964062 232.00440913 164.15890503 235.62225342 C165.40474331 238.98741725 166.65722369 242.35003014 167.91498184 245.7107563 C168.59857041 247.54260972 169.27505787 249.37710806 169.9513855 251.21165466 C170.35841705 252.29527786 170.76544861 253.37890106 171.18481445 254.49536133 C171.53735794 255.44308914 171.88990143 256.39081696 172.25312805 257.36726379 C173.05686212 259.66214504 173.05686212 259.66214504 175.25 260.5 C179.32963219 260.97114773 179.32963219 260.97114773 182.83569336 259.23620605 C184.37589742 257.34544804 185.11629332 255.76087877 185.94140625 253.47070312 C186.24101761 252.65240524 186.54062897 251.83410736 186.84931946 250.99101257 C187.16716904 250.09679092 187.48501862 249.20256927 187.8125 248.28125 C188.15560715 247.33792313 188.49871429 246.39459625 188.85221863 245.42268372 C189.59842913 243.36836418 190.34083811 241.31266078 191.07992554 239.25576782 C192.67996503 234.80360921 194.29857345 230.35827294 195.9160614 225.91242981 C196.76278249 223.58463141 197.60856231 221.25649042 198.45344543 218.92802429 C202.71240909 207.19694151 207.06817503 195.50282749 211.4375 183.8125 C213.01500383 179.58749354 214.59164039 175.3621639 216.16796875 171.13671875 C216.57038788 170.05817627 216.97280701 168.97963379 217.38742065 167.8684082 C220.66123277 159.08952439 223.92051087 150.30530177 227.17578125 141.51953125 C227.68596483 140.14282579 228.19615262 138.7661219 228.7063446 137.38941956 C230.69766938 132.01561675 232.68897304 126.64180689 234.67758179 121.26699829 C237.8571117 112.6737844 241.04686474 104.08444477 244.25 95.5 C244.4909779 94.85362076 244.7319558 94.20724152 244.98023605 93.54127502 C246.4606716 89.57157873 247.94651293 85.60397119 249.43928528 81.63889694 C250.12819621 79.80641909 250.81301343 77.97240383 251.49768066 76.13833618 C262.8173588 46.16587879 282.16887837 23.25112897 311.36767578 9.34765625 C325.3317221 3.05930751 340.26504506 0.33584951 355.5 0 C356.29825195 -0.0306958 357.09650391 -0.0613916 357.91894531 -0.09301758 C361.93262229 -0.09430456 363.8483972 0.2405028 367.296875 2.46875 C369.94139948 6.57305199 369.71950347 9.72794366 369.25 14.5 C368.59929932 17.21047011 367.61822239 19.70406901 366.53588867 22.26904297 C366.24316794 22.99807548 365.95044722 23.72710798 365.64885616 24.47823238 C364.66987077 26.90577868 363.66896076 29.32364158 362.66796875 31.7421875 C361.95471851 33.4985085 361.24291601 35.25541801 360.53244019 37.01286316 C358.99462989 40.80845024 357.44718544 44.59990816 355.89212036 48.38845825 C353.40481154 54.44864019 350.93877753 60.51733234 348.47631836 66.58764648 C345.85394634 73.04934329 343.23005026 79.51040174 340.59895325 85.96855164 C331.02234547 109.47687466 321.56478484 133.03271706 312.11099243 156.59063721 C309.37539098 163.40689977 306.63672684 170.22192863 303.8972168 177.03662109 C296.70804093 194.9209707 289.51995799 212.80574036 282.36328125 230.703125 C282.09478804 231.3745541 281.82629482 232.0459832 281.54966545 232.73775864 C278.65439841 239.9787524 275.7609538 247.22047373 272.86856079 254.46261597 C267.81747533 267.10908321 262.76159738 279.75361263 257.69682789 292.39460659 C255.27957115 298.42836179 252.86498833 304.46316065 250.45605469 310.50024414 C248.07930311 316.45636925 245.69579095 322.40974844 243.30770493 328.36133766 C242.41317923 330.59397505 241.52098523 332.82754834 240.63135147 335.06213951 C236.64541451 345.07033511 232.66129616 355.04650946 227.86279297 364.69848633 C227.54777391 365.33259524 227.23275486 365.96670416 226.90818977 366.6200285 C224.33940302 371.62870552 221.32761449 375.64942418 217.25 379.5 C216.68152344 380.0878125 216.11304688 380.675625 215.52734375 381.28125 C204.24349176 392.20574365 190.28278077 395.88596908 175.04711914 395.79882812 C160.5988833 395.45201067 146.98116838 390.20743962 136.50332642 379.99055481 C127.53723897 370.08052489 122.58745021 358.03478016 117.7890625 345.76953125 C117.09139921 344.01926027 116.39237616 342.26953079 115.69212341 340.52029419 C114.19062803 336.76162841 112.69827207 332.99951541 111.21316528 329.23434448 C108.83548701 323.20652813 106.43775639 317.18681446 104.03686523 311.16821289 C101.47679009 304.74766353 98.91833796 298.32648585 96.36686707 291.9025116 C89.86621585 275.5361934 83.31894138 259.18901245 76.74609375 242.8515625 C76.26784149 241.66272398 75.78958923 240.47388546 75.29684448 239.24902153 C72.90506746 233.30395153 70.51270916 227.35911569 68.12005615 221.41439819 C63.65018964 210.30784794 59.18607334 199.1989871 54.72265625 188.08984375 C54.30345791 187.04658998 53.88425957 186.00333622 53.45235825 184.9284687 C48.1446333 171.71850278 42.84856831 158.50396104 37.56676292 145.2836132 C32.41058366 132.38003619 27.22683096 119.48759976 22.03933144 106.59658623 C20.62167979 103.07366353 19.20426189 99.55064687 17.78691101 96.02760315 C11.9721793 81.57444683 11.9721793 81.57444683 6.15429688 67.12255859 C3.74401526 61.13709983 1.33551875 55.15092549 -1.07180405 49.16427612 C-1.97772953 46.91232075 -2.88430343 44.66062611 -3.79156876 42.40921021 C-5.05300522 39.27869304 -6.31215324 36.14726432 -7.57080078 33.015625 C-7.93650681 32.10963058 -8.30221283 31.20363617 -8.67900085 30.27018738 C-10.50616649 25.71718445 -12.28647341 21.14803064 -14.0072937 16.55371094 C-14.34010786 15.6668158 -14.67292202 14.77992065 -15.01582146 13.8661499 C-16.02024434 10.62904207 -16.02470984 8.64928313 -14.75 5.5 C-10.45815572 -0.27385838 -6.68735075 -0.22974577 0 0 Z " fill="#0170F9" transform="translate(69.75,67.5)"/>
<path d="M0 0 C4.28533904 4.0459983 6.71107393 8.3611115 7.18299937 14.30479133 C7.26429701 17.16726466 7.27608342 20.02307307 7.26742554 22.88670349 C7.27195665 23.98536666 7.27648776 25.08402984 7.28115618 26.21598583 C7.29381951 29.89850919 7.29217855 33.58088501 7.29052734 37.26342773 C7.2965113 39.90317332 7.3032599 42.54290734 7.31088257 45.18264771 C7.32747826 51.60912591 7.33299143 58.03556743 7.33410732 64.46206527 C7.3350583 69.68593337 7.33917108 74.90978937 7.34550858 80.13365364 C7.36311566 94.94854639 7.37234807 109.76341018 7.37084763 124.57831346 C7.37076772 125.37658379 7.3706878 126.17485412 7.37060547 126.99731445 C7.37052371 127.79656064 7.37044195 128.59580684 7.37035771 129.41927261 C7.36954455 142.37636441 7.38869108 155.33334004 7.4168822 168.29039823 C7.44560904 181.59878632 7.45942267 194.90711773 7.45769465 208.21553761 C7.45703077 215.68560098 7.4625225 223.15554249 7.48405075 230.62557793 C7.50225976 236.98452052 7.50661215 243.343286 7.4930319 249.70224338 C7.48650119 252.94574714 7.48856155 256.18884043 7.5037384 259.43232536 C7.519136 262.950626 7.5099179 266.46803198 7.49447632 269.98631287 C7.50476344 271.00849535 7.51505057 272.03067783 7.52564943 273.08383554 C7.46560245 279.26814354 6.65299814 282.95605842 3 288 C-1.29496389 291.66650524 -4.34548238 292.50999912 -9.9375 292.53125 C-11.89816406 292.53898438 -11.89816406 292.53898438 -13.8984375 292.546875 C-14.57229492 292.53849609 -15.24615234 292.53011719 -15.94042969 292.52148438 C-17.99534123 292.5000486 -20.04675818 292.52132507 -22.1015625 292.546875 C-24.06222656 292.53914062 -24.06222656 292.53914062 -26.0625 292.53125 C-27.24972656 292.52673828 -28.43695312 292.52222656 -29.66015625 292.51757812 C-34.47502026 291.77141499 -37.6240188 289.56577171 -40.8125 285.9375 C-43.54350305 281.48165291 -43.33185542 276.79189947 -43.62109375 271.71484375 C-43.742113 268.85616935 -43.742113 268.85616935 -46 267 C-49.47042063 267.09363698 -50.82088746 267.83690566 -53.40234375 270.1875 C-54.23894531 271.115625 -55.07554687 272.04375 -55.9375 273 C-70.47145424 288.3393054 -90.77937015 296.15498528 -111.6953125 297.125 C-135.80205769 297.63927723 -159.88274429 290.16616664 -178 274 C-178.80566406 273.34773438 -179.61132812 272.69546875 -180.44140625 272.0234375 C-201.22820544 254.65230954 -212.18937039 227.43931462 -215 201 C-215.28375104 195.76936336 -215.34152429 190.54944464 -215.3125 185.3125 C-215.30926727 184.25926544 -215.30926727 184.25926544 -215.30596924 183.18475342 C-215.16706777 154.92673566 -208.07073881 127.62448785 -189 106 C-188.55785156 105.41605469 -188.11570312 104.83210938 -187.66015625 104.23046875 C-173.91390064 86.38958381 -149.7504776 75.93204084 -128 73 C-101.46300997 70.998792 -78.79832402 75.92776009 -58 93 C-55.91566086 94.91959756 -53.84864346 96.83737872 -51.8515625 98.84765625 C-49.98460536 100.26126235 -49.98460536 100.26126235 -47.3359375 99.80859375 C-44.83207112 99.24658635 -44.83207112 99.24658635 -44 97 C-43.89863254 94.55087747 -43.85634498 92.12923757 -43.8581543 89.6796875 C-43.85467987 88.9249263 -43.85120544 88.1701651 -43.84762573 87.39253235 C-43.84026356 85.74960062 -43.83492064 84.10665891 -43.83133507 82.4637146 C-43.82416746 79.85634326 -43.80849549 77.2491599 -43.78999329 74.6418457 C-43.73756093 67.22691543 -43.68961995 59.81208401 -43.67407227 52.39697266 C-43.66394042 47.8621889 -43.63447759 43.32787237 -43.59275246 38.79327393 C-43.58050341 37.07110137 -43.57530997 35.3488626 -43.57755089 33.62664795 C-43.58770788 23.26560374 -43.36077129 14.18165009 -37.17578125 5.4140625 C-26.80335462 -4.54520667 -12.48496872 -9.0577224 0 0 Z M-147 134 C-157.03162855 146.24198739 -164.32154272 160.91490877 -165 177 C-165.0515625 178.07378906 -165.103125 179.14757812 -165.15625 180.25390625 C-165.69098656 201.62108807 -159.69390383 221.0596669 -144.75 236.8125 C-132.55890271 248.50396216 -117.00745767 253.59029388 -100.3359375 253.2734375 C-84.05670151 252.53974592 -70.04408439 244.69599215 -59 233 C-46.1283224 217.26236293 -40.80746163 198.14305719 -42 178 C-44.18532469 158.40052194 -52.37171675 140.53061179 -68 128 C-91.25956295 111.32447542 -127.13748118 111.40246165 -147 134 Z " fill="#0170F9" transform="translate(1426,166)"/>
<path d="M0 0 C22.96370462 18.11283797 35.26709255 44.987875 38.82421875 73.60546875 C38.93585514 76.1950946 39.01106729 78.75819527 39.02734375 81.34765625 C39.03304382 82.07429474 39.0387439 82.80093323 39.0446167 83.54959106 C39.05401394 85.08415295 39.06057954 86.61873454 39.06445312 88.15332031 C39.07404825 90.43983934 39.1050744 92.72541419 39.13671875 95.01171875 C39.23498617 108.55982577 37.64061179 121.87547613 33.13671875 134.73046875 C32.88180664 135.46998779 32.62689453 136.20950684 32.36425781 136.97143555 C23.42680091 161.88579795 5.39327261 183.09413503 -18.67578125 194.48046875 C-44.07566692 205.93583358 -71.25298143 206.29269457 -97.17578125 196.60546875 C-102.57356007 194.25923422 -107.30450131 191.30807494 -111.97265625 187.7421875 C-112.6370874 187.23703613 -113.30151855 186.73188477 -113.98608398 186.21142578 C-115.29692013 185.20092632 -116.59411669 184.1724206 -117.87524414 183.12451172 C-120.95496105 180.71939946 -122.43327438 179.62058566 -126.4375 179.5390625 C-129.66875695 180.79745501 -130.45695521 181.63141994 -132.17578125 184.60546875 C-132.62061708 187.66432916 -132.62061708 187.66432916 -132.54467773 191.09887695 C-132.55156113 192.41737137 -132.55844452 193.73586578 -132.5655365 195.09431458 C-132.56235853 195.79663523 -132.55918056 196.49895588 -132.5559063 197.22255898 C-132.54677503 199.43042263 -132.55704312 201.63744071 -132.57252502 203.84526062 C-132.61256183 210.12070424 -132.61383268 216.39608074 -132.61157227 222.67163086 C-132.61152099 226.5149097 -132.63077544 230.35773368 -132.66090584 234.20088768 C-132.67168222 236.36749154 -132.65962898 238.53320855 -132.64707947 240.69978333 C-132.66761133 248.86950905 -133.01027062 254.30186498 -138.87695312 260.36303711 C-144.94212014 264.29115425 -150.59507099 264.32299022 -157.67578125 264.16796875 C-158.76503906 264.17892578 -159.85429687 264.18988281 -160.9765625 264.20117188 C-167.81019426 264.13919819 -172.38798505 263.30080561 -178.17578125 259.60546875 C-181.99731587 254.90204153 -183.29610206 251.11989824 -183.31000233 245.1688118 C-183.31446017 244.28099872 -183.31891801 243.39318564 -183.32351094 242.47846913 C-183.32332658 241.50727659 -183.32314222 240.53608405 -183.32295227 239.53546143 C-183.32662896 238.50046595 -183.33030565 237.46547048 -183.33409375 236.39911151 C-183.34513466 232.92004071 -183.34897512 229.44099977 -183.3527832 225.96191406 C-183.35904747 223.471872 -183.36569424 220.98183087 -183.37269592 218.49179077 C-183.39192357 211.01245184 -183.40252347 203.53312084 -183.41142371 196.05376446 C-183.41580911 192.53025482 -183.42117521 189.00674668 -183.42641258 185.48323822 C-183.44342185 173.76848793 -183.45791616 162.05373856 -183.46516132 150.33897781 C-183.46707116 147.30020395 -183.4689915 144.26143009 -183.47094727 141.22265625 C-183.47167288 140.08977276 -183.47167288 140.08977276 -183.47241315 138.93400273 C-183.48071406 126.69848016 -183.50605333 114.46305534 -183.53852794 102.22757545 C-183.57160734 89.66167033 -183.58961082 77.09581487 -183.59280556 64.52986598 C-183.59496969 57.47611982 -183.60370414 50.42251626 -183.62926674 43.36881256 C-183.65325778 36.73352951 -183.65679391 30.09845691 -183.64650536 23.46312332 C-183.6460091 21.02828493 -183.65235578 18.59343405 -183.6660614 16.15863419 C-183.68373239 12.83325111 -183.67669687 9.50879414 -183.66352844 6.18341064 C-183.67449769 5.22114099 -183.68546693 4.25887133 -183.69676858 3.26744199 C-183.63977559 -2.69855977 -182.73528119 -7.48110403 -179.17578125 -12.39453125 C-173.51851623 -17.30075592 -166.29304909 -17.0871084 -159.16015625 -16.7734375 C-150.99234168 -16.1536628 -144.12014664 -13.57296618 -138.609375 -7.375 C-134.08296533 -1.12189454 -132.65882487 4.99753175 -132.17578125 12.60546875 C-128.36810979 11.68239688 -126.52218941 10.03394533 -124.11328125 7.10546875 C-92.66323679 -30.14866117 -36.63287002 -27.62109388 0 0 Z M-118.421875 44.203125 C-131.95261907 61.97981145 -136.50010388 82.50503502 -133.6796875 104.46875 C-130.20919647 122.09570724 -121.89270816 138.15243547 -107.1328125 148.80078125 C-92.81690511 158.0710582 -77.83479382 161.41011405 -60.953125 159.1796875 C-44.82632972 155.64177683 -31.42470124 146.65162796 -22.30078125 132.91796875 C-11.33661765 115.37817845 -8.87205157 93.63681863 -12.9296875 73.55078125 C-17.38579631 55.31616025 -27.05359547 40.65978458 -42.86328125 30.41796875 C-68.01344986 15.90228502 -99.65859421 22.50298287 -118.421875 44.203125 Z " fill="#0170F9" transform="translate(2209.17578125,259.39453125)"/>
<path d="M0 0 C2.52555091 2.20936911 4.94761179 4.48311628 7.33984375 6.8359375 C8.49806641 7.97482422 8.49806641 7.97482422 9.6796875 9.13671875 C24.35312174 24.46230562 32.23300706 45.80604037 33.33984375 66.8359375 C33.38109375 67.5990625 33.42234375 68.3621875 33.46484375 69.1484375 C34.07024023 92.15350387 26.25692792 114.36677387 11.33984375 131.8359375 C10.91832031 132.40054688 10.49679688 132.96515625 10.0625 133.546875 C-3.36617773 150.93476775 -26.44095871 160.76225867 -47.66015625 163.8359375 C-68.36287401 165.02820618 -86.82697907 163.94618728 -105.66015625 154.8359375 C-107.04267578 154.17464844 -107.04267578 154.17464844 -108.453125 153.5 C-115.63499849 149.83309139 -121.64089952 145.17411625 -127.66015625 139.8359375 C-128.35882812 139.23265625 -129.0575 138.629375 -129.77734375 138.0078125 C-139.97580325 128.5875487 -147.08241644 115.79666335 -151.66015625 102.8359375 C-152.07265625 101.70929688 -152.48515625 100.58265625 -152.91015625 99.421875 C-158.43755938 81.49619957 -158.06236547 59.47339623 -151.66015625 41.8359375 C-151.28632813 40.78019531 -150.9125 39.72445312 -150.52734375 38.63671875 C-141.61081984 15.57776123 -125.17201858 -2.17746105 -102.73046875 -12.4453125 C-69.07048223 -27.02539291 -28.8609092 -23.4786251 0 0 Z " fill="#FFC10E" transform="translate(2423.66015625,279.1640625)"/>
<path d="M0 0 C0.75297363 0.00902344 1.50594727 0.01804688 2.28173828 0.02734375 C15.4744536 0.43197655 26.08285885 6.04839086 35.1875 15.5625 C42.56610943 25.19172775 46.68336327 37.44185826 50.90170288 48.69641113 C52.51583471 53.00040213 54.1562752 57.29439342 55.79296875 61.58984375 C56.13320572 62.48454376 56.47344269 63.37924377 56.82398987 64.30105591 C60.50490452 73.96403243 64.30948136 83.57705672 68.125 93.1875 C69.55915173 96.80316433 70.992649 100.41908771 72.42578125 104.03515625 C72.78987091 104.95370392 73.15396057 105.87225159 73.52908325 106.81863403 C77.98751179 118.07540235 82.39801218 129.35094725 86.8125 140.625 C96.45800205 165.2540944 106.18486876 189.85065604 115.9375 214.4375 C120.6462413 204.6075129 124.49583163 194.46605677 128.40487671 184.29833984 C130.51324948 178.81480932 132.63256364 173.33550424 134.75 167.85546875 C135.18305954 166.73377289 135.61611908 165.61207703 136.06230164 164.45639038 C140.38288209 153.27022105 144.74906942 142.10211004 149.125 130.9375 C150.61730767 127.12895333 152.10946297 123.32034697 153.6015625 119.51171875 C153.96504791 118.58403687 154.32853333 117.65635498 154.70303345 116.70056152 C157.48524382 109.59774118 160.25793174 102.49124372 163.02577209 95.3828125 C164.66439947 91.17492474 166.30518394 86.96791165 167.9519043 82.76318359 C168.60468585 81.09604075 169.2574364 79.42888576 169.91015625 77.76171875 C170.23447128 76.93349609 170.55878632 76.10527344 170.89292908 75.25195312 C173.04800687 69.73906032 175.17579141 64.21620263 177.2908783 58.68785095 C178.79725974 54.75839373 180.31675502 50.83408011 181.83834839 46.91049194 C182.55979066 45.04117587 183.27558091 43.16966663 183.98513794 41.29580688 C190.28462401 24.67181199 197.15234957 11.44754054 213.8203125 3.26171875 C219.45211675 1.06926359 224.51980027 0.14346039 230.5625 0.125 C232.46902344 0.09986328 232.46902344 0.09986328 234.4140625 0.07421875 C239.44036675 0.59245189 241.89828974 2.25395498 245.1875 6 C248.62228065 10.78415876 248.70850341 14.65273575 247.9375 20.4375 C246.20181935 26.01071606 243.91664613 31.3239526 241.625 36.6875 C240.94937152 38.30543559 240.2755078 39.92410909 239.60327148 41.54345703 C238.15743147 45.01939889 236.70188824 48.49105179 235.23925781 51.95996094 C232.89037034 57.53778672 230.57811427 63.13034833 228.2734375 68.7265625 C227.88272064 69.67506577 227.49200378 70.62356903 227.08944702 71.60081482 C226.29398594 73.5319046 225.4985658 75.46301125 224.70318604 77.39413452 C222.687084 82.28425327 220.66338053 87.17122441 218.640625 92.05859375 C214.325142 102.48978425 210.03179823 112.92994304 205.75 123.375 C205.42441101 124.16911285 205.09882202 124.96322571 204.7633667 125.78140259 C202.48726271 131.33310115 200.21222807 136.88523756 197.9375 142.4375 C195.33410671 148.79198383 192.7301889 155.14625208 190.125 161.5 C189.63684311 162.69059525 189.63684311 162.69059525 189.13882446 163.90524292 C185.19427093 173.52377383 181.23885116 183.13775534 177.26953125 192.74609375 C176.87316971 193.70555405 176.47680817 194.66501434 176.06843567 195.65354919 C174.05918489 200.51610113 172.0483085 205.37797459 170.03540039 210.23901367 C166.10845072 219.72719165 162.20447524 229.22368139 158.3515625 238.7421875 C157.26664201 241.41499195 156.18131117 244.08762949 155.09594727 246.76025391 C154.09171306 249.24035417 153.09555325 251.72359294 152.09960938 254.20703125 C146.98809497 266.85431782 141.79705782 278.63770713 128.83203125 284.7109375 C120.94785334 287.73456037 110.58928206 287.78559945 102.625 285 C86.75918067 277.42347729 81.88835452 261.72168935 75.73519897 246.4994812 C74.35675275 243.08976638 72.96741374 239.68451784 71.57899475 236.27885437 C70.83833994 234.46178 70.09822553 232.64448528 69.35862732 230.82698059 C65.152363 220.49383695 60.888923 210.18445076 56.625 199.875 C55.82261062 197.9337821 55.02028351 195.99253846 54.21801758 194.05126953 C52.59917311 190.13418852 50.98009784 186.21720305 49.36083984 182.30029297 C45.77929243 173.6361415 42.20073524 164.97075499 38.62197876 156.30545044 C36.64394416 151.516082 34.66571199 146.72679517 32.6875 141.9375 C31.89583239 140.02083372 31.10416572 138.10416706 30.3125 136.1875 C29.920625 135.23875 29.52875 134.29 29.125 133.3125 C25.56249993 124.68749984 25.56249993 124.68749984 24.37518311 121.8129425 C23.58290684 119.89480051 22.79062982 117.97665883 21.99835205 116.05851746 C20.02850602 111.28942586 18.05867282 106.52032898 16.08886719 101.7512207 C12.41543081 92.85747985 8.74187047 83.96379027 5.06787109 75.07028198 C3.35322281 70.9196775 1.63864505 66.76904388 -0.07592773 62.6184082 C-0.88464922 60.66071144 -1.69340434 58.70302858 -2.50219727 56.74536133 C-2.8836792 55.82198975 -3.26516113 54.89861816 -3.65820312 53.94726562 C-4.0311702 53.0448262 -4.40413727 52.14238678 -4.78840637 51.21260071 C-5.51443262 49.45412664 -6.23930529 47.69517577 -6.9629364 45.93571472 C-8.66284812 41.80509805 -10.37921163 37.68334862 -12.13793945 33.57739258 C-12.62668549 32.42458549 -12.62668549 32.42458549 -13.12530518 31.24848938 C-13.72909531 29.82595646 -14.33971676 28.40629262 -14.95892334 26.99040222 C-17.43224066 21.12985481 -18.31491816 15.69959082 -17.0625 9.4375 C-13.41241799 1.73177131 -8.16614365 -0.11663316 0 0 Z " fill="#0170F9" transform="translate(559.0625,173.5625)"/>
<path d="M0 0 C24.13439575 20.2177531 36.29307832 49.78461961 39.06884766 80.69726562 C40.28745543 97.72438789 40.28745543 97.72438789 37.85400391 102.80664062 C34.0886831 107.13675956 30.13744494 109.32758779 24.4833622 110.04678535 C21.02712281 110.19191402 17.59178102 110.20742936 14.13256836 110.17993164 C12.1677652 110.18820984 12.1677652 110.18820984 10.16326904 110.19665527 C7.32857122 110.20855331 4.49424415 110.20815801 1.65954018 110.19806099 C-2.82466721 110.18243392 -7.30849739 110.19622233 -11.79267883 110.21409607 C-20.49770485 110.2448399 -29.20261405 110.24641937 -37.90768433 110.2444458 C-48.99899703 110.24305047 -60.09022058 110.25340409 -71.18146735 110.29302353 C-75.63761227 110.30794418 -80.09342046 110.30769775 -84.54957044 110.2955457 C-86.65288784 110.29196861 -88.75606535 110.29514935 -90.859375 110.30133057 C-93.42140458 110.30872727 -95.98349649 110.30540747 -98.54548645 110.28935242 C-99.67670929 110.29610992 -100.80793213 110.30286743 -101.97343445 110.30982971 C-102.95397136 110.3092434 -103.93450827 110.30865709 -104.94475842 110.30805302 C-108.1570434 110.75231968 -110.03404447 111.78842041 -112.64599609 113.68164062 C-114.43645517 116.61148276 -114.65087837 118.43264469 -114.58349609 121.86914062 C-111.38503643 134.87620993 -102.32681278 146.28370379 -91.03271484 153.30664062 C-73.27601995 162.91784219 -53.97939572 164.17899707 -34.64599609 158.68164062 C-26.85560895 155.89289591 -19.66714329 152.38992916 -12.73193359 147.88085938 C-6.63519786 144.37580718 1.44160159 144.81283276 8.11572266 146.29492188 C14.48993093 148.51076457 18.6014643 152.09299602 22.35400391 157.68164062 C23.891282 162.29347491 24.00956844 166.11326472 22.11962891 170.63476562 C13.16993628 186.07892547 -8.79638229 195.48548602 -25.34570312 200.10864258 C-57.16117888 208.48921739 -91.23049326 204.23656247 -119.64599609 187.68164062 C-145.5989089 171.18641506 -160.55860926 146.29437798 -167.20849609 116.8046875 C-173.44920461 86.52053499 -167.96645756 53.82885883 -151.64599609 27.68164062 C-135.38902354 3.12915811 -111.37683311 -13.15025809 -82.64599609 -19.31835938 C-54.00138575 -24.61286081 -22.83721712 -18.29145245 0 0 Z M-103.38037109 37.92773438 C-108.42887724 44.06428064 -112.93310192 50.61297479 -113.64599609 58.68164062 C-112.84523873 65.34709977 -109.65519594 69.21956802 -104.58349609 73.36914062 C-100.78179788 75.94448457 -97.38399317 75.82780307 -92.91479492 75.87451172 C-92.23470367 75.88268921 -91.55461243 75.8908667 -90.85391235 75.89929199 C-88.60362618 75.92409787 -86.35340303 75.94065223 -84.10302734 75.95507812 C-83.33245184 75.9604018 -82.56187634 75.96572548 -81.76795006 75.97121048 C-77.6868629 75.99792502 -73.60580611 76.01730271 -69.5246582 76.03173828 C-66.15589133 76.04505999 -62.78773271 76.07288121 -59.41918945 76.11376953 C-55.34374564 76.16323285 -51.2688521 76.18787613 -47.19312096 76.19496536 C-45.64503661 76.20165544 -44.09696346 76.21681891 -42.54905128 76.24085617 C-31.7000091 76.53170398 -31.7000091 76.53170398 -22.06425476 72.08047485 C-18.06445562 68.13545687 -15.92660658 63.50304642 -15.48974609 57.84570312 C-16.09575098 49.45253551 -21.30599863 42.78612491 -26.64599609 36.68164062 C-27.39623047 35.75544922 -27.39623047 35.75544922 -28.16162109 34.81054688 C-34.88359647 27.18891317 -46.52284386 21.54933939 -56.64599609 20.68164062 C-75.43019681 19.53677963 -90.22952561 24.03450246 -103.38037109 37.92773438 Z " fill="#0170F9" transform="translate(946.64599609375,259.318359375)"/>
<path d="M0 0 C1.57465114 1.34001769 3.13725011 2.69432644 4.6875 4.0625 C5.51765625 4.76117188 6.3478125 5.45984375 7.203125 6.1796875 C28.03911991 24.13954815 41.38732278 50.59674749 43.6875 78.0625 C45.38152353 108.93497407 38.5011792 139.028145 17.69775391 162.68554688 C16.37223927 164.15474748 15.03032961 165.60910807 13.6875 167.0625 C13.03265625 167.79855469 12.3778125 168.53460938 11.703125 169.29296875 C-7.77723984 190.14694906 -37.33433165 201.29629036 -65.40625 202.34375 C-94.70240846 202.98497919 -123.96675127 196.04996037 -146.3125 176.0625 C-147.14007812 175.36511719 -147.96765625 174.66773438 -148.8203125 173.94921875 C-169.90272859 155.80028869 -181.78077525 130.41234463 -185.3125 103.0625 C-187.52892304 73.34979383 -180.71495335 43.943519 -162 20.3125 C-160.46209118 18.54085029 -158.89835549 16.79136339 -157.3125 15.0625 C-156.87599121 14.5782959 -156.43948242 14.0940918 -155.98974609 13.59521484 C-117.63611003 -28.54643465 -45.24607868 -35.50511322 0 0 Z M-117.3125 41.0625 C-117.95058594 41.67738281 -118.58867188 42.29226563 -119.24609375 42.92578125 C-131.68660422 55.86502043 -136.00869999 74.5860427 -135.78100586 92.0390625 C-135.06923875 110.23651303 -128.1070437 127.6133045 -115.11328125 140.50390625 C-111.10128492 144.16897961 -106.96983623 147.26967169 -102.3125 150.0625 C-101.69375 150.44792969 -101.075 150.83335937 -100.4375 151.23046875 C-86.27283561 159.19809247 -68.9676884 160.2168301 -53.4375 156.4375 C-35.38278496 150.88072402 -22.79970938 140.63528477 -13.6640625 124.07421875 C-4.92634714 106.62009952 -3.782847 86.67233621 -9.3125 68.0625 C-15.53723653 49.68470643 -26.94948661 35.90742329 -44.3125 27.0625 C-70.11084719 16.59140614 -97.49140058 21.30939749 -117.3125 41.0625 Z " fill="#0170F9" transform="translate(1635.3125,260.9375)"/>
<path d="M0 0 C1.08023437 0.32871094 2.16046875 0.65742188 3.2734375 0.99609375 C21.03240298 7.09151064 33.80617481 19.45601993 42.13183594 36.125 C48.37322044 49.60470557 50.30104216 63.36969596 50.29052734 78.09692383 C50.29652611 79.47795978 50.30333471 80.8589924 50.31088257 82.24002075 C50.32839789 85.95661416 50.33323134 89.67311525 50.33451414 93.38974595 C50.33594285 95.71573404 50.34022562 98.04169916 50.34550858 100.3676815 C50.36395027 108.49245046 50.37218525 116.61715416 50.37060547 124.74194336 C50.36940079 132.30217964 50.39058178 139.86213198 50.4220928 147.42229635 C50.44825122 153.9312765 50.45897318 160.44016373 50.45769465 166.94919604 C50.45718554 170.82930361 50.46284238 174.7091575 50.48405075 178.58921242 C50.50342992 182.23296033 50.50356039 185.87621204 50.48901749 189.51997757 C50.48593506 191.48921872 50.50260183 193.45845995 50.51989746 195.42762756 C50.44321537 206.2023353 50.44321537 206.2023353 46 211 C39.4009239 216.8134718 34.3732001 216.24572387 25.8125 216.3125 C24.59240234 216.34150391 23.37230469 216.37050781 22.11523438 216.40039062 C15.19391226 216.44926471 10.5436069 216.31514983 5 212 C1.05703113 207.01940774 -0.1196335 203.27457514 -0.13803101 197.04406738 C-0.14348434 196.04621216 -0.14893768 195.04835693 -0.15455627 194.02026367 C-0.1555986 192.93140869 -0.15664093 191.84255371 -0.15771484 190.72070312 C-0.16279556 189.56896606 -0.16787628 188.417229 -0.17311096 187.23059082 C-0.18381577 184.72718569 -0.19243551 182.22377097 -0.19923019 179.72035217 C-0.21102648 175.751311 -0.23020452 171.78234766 -0.25234985 167.81335449 C-0.31414087 156.52730196 -0.36815352 145.24125361 -0.40136719 133.95507812 C-0.41979608 127.72008246 -0.44883873 121.48522736 -0.4893719 115.25033522 C-0.51031274 111.95684607 -0.52418633 108.66356952 -0.52817917 105.37001038 C-0.5331181 101.68461772 -0.55635532 97.99974014 -0.58349609 94.31445312 C-0.58048996 93.24179199 -0.57748383 92.16913086 -0.5743866 91.06396484 C-0.72559941 77.15430766 -4.47849549 64.06178068 -14.125 53.75 C-23.56513085 44.93921121 -35.44657997 43.04193793 -48 43 C-59.14056217 43.5244285 -70.11687935 48.07876963 -78.4375 55.5625 C-92.44380604 71.22191083 -92.43506537 91.60812803 -92.34955978 111.38718796 C-92.33563897 114.91151695 -92.34236357 118.43529443 -92.35440063 121.95962524 C-92.38512203 131.96710112 -92.38044048 141.97443995 -92.36035156 151.98193359 C-92.34941249 158.13431112 -92.36265876 164.28626806 -92.39024734 170.43858719 C-92.39566659 172.76925014 -92.39167888 175.09995573 -92.37784958 177.43058395 C-92.35871844 180.68905196 -92.37024781 183.94614417 -92.38818359 187.20458984 C-92.36817543 188.62777527 -92.36817543 188.62777527 -92.34776306 190.07971191 C-92.43118041 196.92975281 -94.12435294 202.30449979 -98 208 C-104.84514923 214.51641288 -111.25183733 216.54493281 -120.640625 216.375 C-127.40834561 215.61953351 -132.76423083 212.66380509 -137.4375 207.75 C-143.82214214 199.02891661 -143.42729901 189.35512811 -143.37231445 178.97460938 C-143.37474584 177.36228705 -143.37846853 175.74996623 -143.38337708 174.13764954 C-143.39274216 169.78019779 -143.38339766 165.4229724 -143.37004495 161.06553841 C-143.35868299 156.49335851 -143.36284162 151.92118899 -143.36479187 147.34899902 C-143.36567335 139.67257006 -143.35462506 131.99622966 -143.33618164 124.31982422 C-143.31501629 115.4601023 -143.31150505 106.60051004 -143.3177436 97.74076796 C-143.3234495 89.19832119 -143.31777715 80.65591983 -143.30657005 72.11347961 C-143.3019403 68.48691463 -143.30104316 64.86037755 -143.3031559 61.23381042 C-143.30504743 56.959009 -143.29686871 52.68433846 -143.2810955 48.40956688 C-143.27687369 46.84593942 -143.27598784 45.28229864 -143.27878571 43.71866798 C-143.29893661 30.43657466 -142.62614701 19.98193074 -133.07421875 9.984375 C-126.05147213 3.49344803 -118.70306599 0.6215582 -109.05078125 0.78515625 C-102.96355744 1.42286541 -98.86662451 4.47052558 -95 9 C-93.32497943 11.84937565 -92.7269734 14.03728737 -92.5859375 17.328125 C-92.54726562 18.12734375 -92.50859375 18.9265625 -92.46875 19.75 C-92.4378125 20.575 -92.406875 21.4 -92.375 22.25 C-92.31699219 23.51070313 -92.31699219 23.51070313 -92.2578125 24.796875 C-92.16384164 26.86423382 -92.08084436 28.93208627 -92 31 C-91.33355469 30.16597656 -90.66710938 29.33195312 -89.98046875 28.47265625 C-67.87943152 1.27106778 -34.3067376 -10.72628378 0 0 Z " fill="#0170F9" transform="translate(1145,242)"/>
<path d="M0 0 C4.52797909 4.11893896 7.60438138 8.47025983 8.30078125 14.68359375 C8.33139871 21.87869695 7.51262093 26.15677105 2.625 31.6875 C-3.41104739 37.00497032 -8.03401072 38.38977318 -16 38 C-18.57552028 37.19150334 -20.95796807 36.34061377 -23.4375 35.3125 C-24.85429924 34.7587173 -26.27230559 34.20801453 -27.69140625 33.66015625 C-28.40828613 33.38187988 -29.12516602 33.10360352 -29.86376953 32.81689453 C-45.92757183 26.67409653 -64.95619186 21.29986611 -81.65625 28.078125 C-87.13091704 30.88655809 -90.99913303 33.99739909 -93 40 C-93.48214578 45.03486659 -93.59647259 49.52302025 -91.6875 54.25 C-81.31001745 64.86881935 -66.48122119 68.50294466 -52.79666138 73.07633972 C-49.73640295 74.10072976 -46.67873284 75.13276016 -43.62084961 76.16421509 C-41.38002895 76.91487816 -39.13474704 77.65073543 -36.88867188 78.38549805 C-16.30486683 85.22446114 4.86834167 94.95841339 15.375 115.0625 C22.47901857 129.5285043 21.9625645 147.66390676 17.19140625 162.80859375 C10.51441897 180.69416296 -1.64991127 192.24731728 -18.75390625 200.23828125 C-47.3007794 212.69161517 -83.29209111 208.90792055 -111.71875 197.92431641 C-115.92397357 196.22044478 -120.06770062 194.4006157 -124.1875 192.5 C-125.35478638 191.96693237 -125.35478638 191.96693237 -126.5456543 191.4230957 C-133.71612551 187.97924419 -140.25459304 183.77865306 -143 176 C-144.60270424 169.38884501 -143.88510018 164.14131283 -141 158 C-138.27165489 153.61515964 -134.91097609 150.6483207 -130 149 C-119.08908441 146.49636215 -111.20130574 150.8605648 -101.70141602 155.71264648 C-88.24320097 162.56190676 -74.88139598 166.16390386 -59.75 166.25 C-58.85925781 166.270625 -57.96851563 166.29125 -57.05078125 166.3125 C-47.74960539 166.36649812 -38.15649452 164.31552396 -31 158 C-27.01567744 153.05898983 -26.36405515 147.76424569 -26.61328125 141.55078125 C-27.52610506 135.52983226 -31.38373273 132.47826854 -36 129 C-45.13634069 123.50237124 -55.05554043 120.53291851 -65.1875 117.5 C-98.45622335 107.42165135 -98.45622335 107.42165135 -108.9375 101.6875 C-109.98804565 101.12119873 -109.98804565 101.12119873 -111.05981445 100.54345703 C-117.14365211 97.14393429 -122.19010898 93.0531929 -127 88 C-127.87011719 87.14148438 -127.87011719 87.14148438 -128.7578125 86.265625 C-139.74159846 74.67469509 -140.49255352 59.6246697 -140.2421875 44.5859375 C-139.70125046 28.42745182 -132.60515325 15.13227773 -121 4 C-91.65808807 -23.13989228 -32.4722514 -22.05300538 0 0 Z " fill="#0170F9" transform="translate(1987,255)"/>
<path d="M0 0 C6.74989565 4.09363348 11.41157768 9.37910112 13.80151367 16.98095703 C15.14654329 24.06168767 14.67382561 31.385149 14.5625 38.5625 C14.54742858 40.2558475 14.53374451 41.94920794 14.52148438 43.64257812 C14.48866704 47.76204222 14.43702063 51.8808763 14.375 56 C14.93796783 55.99333817 15.50093567 55.98667633 16.08096313 55.97981262 C21.95349401 55.91331396 27.82591747 55.8681392 33.69873047 55.83520508 C35.88887885 55.82014194 38.07899719 55.79968741 40.26904297 55.77368164 C43.42162503 55.73719011 46.57380737 55.72024861 49.7265625 55.70703125 C50.70178864 55.69154739 51.67701477 55.67606354 52.68179321 55.66011047 C59.25204773 55.65849312 63.57698456 56.58009476 68.6875 61 C73.05478953 66.17604685 71.83720185 74.5737124 71.54980469 81.02734375 C71.02552373 86.94381045 68.17700652 90.47798636 63.9375 94.375 C58.28778976 99.06779876 52.97511281 99.27894777 45.91796875 99.1953125 C45.01500565 99.1924826 44.11204254 99.18965271 43.18171692 99.18673706 C40.30850766 99.17557607 37.43561445 99.15047897 34.5625 99.125 C32.61003056 99.11496493 30.65755621 99.10584 28.70507812 99.09765625 C23.92826434 99.07565008 19.15168569 99.04114831 14.375 99 C14.43565183 113.44767564 14.51342841 127.89517314 14.61071491 142.34265041 C14.65559136 149.05157839 14.69502453 155.76045424 14.72143555 162.46948242 C14.74749106 168.94702064 14.78791013 175.42432612 14.83818626 181.90172005 C14.85483963 184.36994591 14.8663634 186.83821201 14.87261391 189.30648613 C14.88227128 192.77024468 14.91035168 196.23340983 14.94262695 199.69702148 C14.94119186 200.71194672 14.93975677 201.72687195 14.9382782 202.77255249 C15.0363593 210.24125124 15.90207277 216.92554993 20.6875 222.875 C26.23383106 227.26047107 31.33872521 229.19092453 38.33203125 228.9921875 C39.28013672 228.97542969 40.22824219 228.95867187 41.20507812 228.94140625 C43.18183677 228.89739198 45.15843508 228.84540224 47.13476562 228.78515625 C54.46312266 228.67599995 58.94541492 229.73959165 65.125 233.8125 C70.37984331 238.92137544 71.38116906 244.85690959 71.625 251.875 C71.54633293 257.74880787 70.45310873 261.79594529 66.3125 266.1875 C48.49473258 277.1814416 23.91715138 277.29852082 3.9921875 272.96875 C-9.11512597 269.45836799 -19.58339513 263.31456692 -27.09375 251.765625 C-34.074744 239.15709502 -35.94178413 226.39435376 -35.85205078 212.18481445 C-35.85234283 210.95425827 -35.85263489 209.72370209 -35.85293579 208.45585632 C-35.85179021 205.11767134 -35.84183621 201.77974103 -35.82778788 198.44160104 C-35.81519177 194.93960604 -35.81410308 191.4376068 -35.81173706 187.93559265 C-35.80554816 181.32022419 -35.78917284 174.7049227 -35.76903808 168.08958358 C-35.74659791 160.55139189 -35.73566534 153.01319683 -35.72564721 145.47498 C-35.70480398 129.98328136 -35.66967901 114.49164935 -35.625 99 C-36.74104614 99.02719116 -36.74104614 99.02719116 -37.87963867 99.05493164 C-38.8616626 99.06903076 -39.84368652 99.08312988 -40.85546875 99.09765625 C-42.31182739 99.12484741 -42.31182739 99.12484741 -43.79760742 99.15258789 C-49.87978469 98.82434674 -53.99572701 95.98167356 -58 91.5625 C-63.9024896 84.45643011 -63.51641966 75.80350489 -62.91943359 67.00878906 C-62.40696825 63.51246666 -60.96163488 61.45268361 -58.42578125 59.09375 C-53.45247226 56.0730851 -49.03576243 55.74201982 -43.3125 55.875 C-42.57193359 55.88402344 -41.83136719 55.89304688 -41.06835938 55.90234375 C-39.25376533 55.92575787 -37.43933929 55.96162385 -35.625 56 C-35.64594727 54.70900391 -35.66689453 53.41800781 -35.68847656 52.08789062 C-35.76118646 47.27224941 -35.80691225 42.45665619 -35.84472656 37.640625 C-35.86477159 35.56111475 -35.89201513 33.48166037 -35.92675781 31.40234375 C-35.97558948 28.40350513 -35.99804028 25.40541537 -36.015625 22.40625 C-36.03627014 21.48509399 -36.05691528 20.56393799 -36.07818604 19.61486816 C-36.08060957 12.55332602 -34.44045997 7.3460899 -29.86328125 1.90625 C-21.54141901 -4.17056624 -9.26897595 -4.15897389 0 0 Z " fill="#0170F9" transform="translate(2532.625,187)"/>
<path d="M0 0 C0 17.49 0 34.98 0 53 C-9.405 53.99 -9.405 53.99 -19 55 C-36.59434562 59.02582485 -51.35430064 66.97201862 -61.41015625 82.3515625 C-72.63612978 101.05232431 -75.29199992 120.84862345 -75.27439499 142.26713371 C-75.27341358 144.9041138 -75.28655399 147.54070399 -75.30337524 150.17762756 C-75.34920055 157.66306753 -75.37428013 165.1484572 -75.38085938 172.6340332 C-75.3858807 177.24096284 -75.41014008 181.8474698 -75.44618607 186.45425606 C-75.45594839 188.19845604 -75.45833559 189.94271433 -75.45301437 191.68693352 C-75.44592164 194.12239747 -75.46326288 196.55659874 -75.48583984 198.99194336 C-75.47766739 199.70219162 -75.46949493 200.41243988 -75.46107483 201.14421082 C-75.5504856 206.5866266 -77.02562278 209.60007067 -80 214 C-86.38291801 219.91587523 -92.45802128 219.24475508 -100.75 219.3125 C-101.91789062 219.34150391 -103.08578125 219.37050781 -104.2890625 219.40039062 C-111.07321282 219.4503872 -115.68894873 219.41428999 -121 215 C-126.32279303 209.7282906 -126.56212466 203.60097635 -126.65116405 196.49440885 C-126.65560206 193.91117845 -126.63563582 191.32875041 -126.61523438 188.74560547 C-126.61873818 186.88225805 -126.62439968 185.01891363 -126.63204956 183.15557861 C-126.64626789 178.1101561 -126.62926605 173.06528051 -126.60576439 168.01991034 C-126.58562453 162.73496573 -126.59153648 157.45004313 -126.59387207 152.16506958 C-126.59381854 143.29306033 -126.57408529 134.42126437 -126.54199219 125.54931641 C-126.50507863 115.29498698 -126.49632024 105.04093664 -126.5032897 94.78654945 C-126.50959591 84.91510686 -126.49883966 75.04375987 -126.47932434 65.17233658 C-126.47115395 60.97390505 -126.46844012 56.7755224 -126.47001648 52.57708359 C-126.47089576 47.63413519 -126.45666732 42.69145179 -126.43078995 37.7485733 C-126.42363181 35.93536031 -126.42154283 34.12211911 -126.42490768 32.30889511 C-126.42862636 29.83258612 -126.41386204 27.35704886 -126.39440918 24.88082886 C-126.39973711 24.16448269 -126.40506503 23.44813652 -126.41055441 22.71008289 C-126.33663012 17.25057023 -124.99518314 13.20812612 -121.31640625 9.13671875 C-120.73761719 8.65847656 -120.15882812 8.18023437 -119.5625 7.6875 C-118.98628906 7.19636719 -118.41007812 6.70523438 -117.81640625 6.19921875 C-112.92676248 2.97100233 -106.61525951 3.48952186 -101 4 C-91.74249972 6.08231036 -85.91898271 10.65734348 -79.6875 17.5625 C-76.85533631 23.33172234 -75 30.52617616 -75 37 C-72.70230101 37.49817517 -72.70230101 37.49817517 -70 37 C-68.16986331 35.03957212 -66.7492284 33.25177759 -65.25 31.0625 C-64.37049561 29.85859764 -63.48632623 28.65809018 -62.59765625 27.4609375 C-61.94047607 26.57293457 -61.94047607 26.57293457 -61.27001953 25.66699219 C-51.05573642 12.26000928 -35.41989351 3.81612623 -19 0.6875 C-13 0 -13 0 0 0 Z " fill="#0170F9" transform="translate(1822,239)"/>
<path d="M0 0 C15.17165665 12.38224892 23.77570051 27.19040685 26.32470703 46.74707031 C27.72287063 63.63599884 22.77852351 79.49773886 12.32470703 92.74707031 C11.86451172 93.37097656 11.40431641 93.99488281 10.93017578 94.63769531 C2.36345579 105.59914683 -12.04909076 113.44751155 -25.67529297 115.74707031 C-44.55302271 117.43787506 -61.29968698 115.51752645 -76.67529297 103.74707031 C-77.52607422 103.10125 -78.37685547 102.45542969 -79.25341797 101.79003906 C-91.44459327 91.7117515 -99.91891091 76.51167023 -101.67529297 60.74707031 C-103.03179635 41.67381064 -98.44145619 23.89820619 -85.85498047 9.05566406 C-64.06011565 -14.02814437 -26.07370646 -19.50018384 0 0 Z " fill="#0170F9" transform="translate(284.67529296875,500.2529296875)"/>
</svg>
